<svg version="1.1" xmlns="http://www.w3.org/2000/svg" style="display: block;" viewBox="0 0 1936 1936" width="484" height="484" preserveAspectRatio="none">
<defs>
	<linearGradient id="Gradient1" gradientUnits="userSpaceOnUse" x1="1454.64" y1="1119.52" x2="1486.28" y2="1124.04">
		<stop class="stop0" offset="0" stop-opacity="1" stop-color="rgb(200,255,240)"/>
		<stop class="stop1" offset="1" stop-opacity="1" stop-color="rgb(253,255,255)"/>
	</linearGradient>
</defs>
<path transform="translate(0,0)" fill="rgb(247,166,32)" d="M 923.346 0 L 1016.78 0 C 1021.84 2.84173 1075.45 6.15638 1086.4 7.44453 C 1134.41 13.4945 1181.92 23.0392 1228.54 36.0025 C 1530.63 120.181 1773.04 345.823 1878.61 641.123 C 1906.15 716.253 1923.1 796.092 1931.04 875.636 C 1932.78 893.073 1930.03 911.94 1936 929.227 L 1936 1008.74 C 1930.71 1026.56 1930.97 1060.14 1928.75 1080.4 C 1924.32 1121.88 1916.93 1162.99 1906.66 1203.42 C 1841.98 1460.49 1674.82 1679.85 1444.1 1810.4 C 1343.55 1867.28 1233.68 1905.81 1119.62 1924.2 C 1099.83 1927.53 1079.9 1930.09 1059.9 1931.86 C 1049.85 1932.69 1022.99 1933.42 1014.65 1936 L 923.107 1936 C 914.713 1933.61 885.734 1932.49 875.515 1931.67 C 854.904 1929.93 834.379 1927.29 813.998 1923.76 C 696.636 1904.8 583.769 1864.39 481.043 1804.55 C 255.396 1673.22 92.3134 1456.37 28.7557 1203.14 C 18.821 1163.55 11.3832 1123.36 6.48624 1082.83 C 5.09672 1071.32 4.02964 1059.77 3.28624 1048.2 C 2.68981 1038.76 2.59761 1023.58 0 1014.88 L 0 922.348 C 3.46938 909.933 2.29002 889.262 3.78618 875.958 C 5.82958 857.786 7.9452 839.708 10.7443 821.638 C 25.5172 724.812 54.9443 630.8 98.0142 542.831 C 219.933 293.55 442.953 108.564 710.473 34.8213 C 749.613 24.2277 789.346 15.9606 829.464 10.0635 C 843.481 8.10075 857.855 6.78032 871.753 5.12007 C 883.26 3.7454 914.053 3.79876 923.346 0 z M 1444.63 1083.66 C 1450.53 1089.05 1453.06 1091.97 1458.16 1098.2 L 1459.64 1094.89 C 1455.52 1089.41 1451.65 1083.71 1447.76 1078.06 C 1447.48 1081 1446.63 1081.4 1444.63 1083.66 z"/>
<path transform="translate(0,0)" fill="rgb(255,254,255)" d="M 928.286 26.5923 C 1448.48 5.5414 1887.24 410.18 1908.29 930.374 C 1929.33 1450.57 1524.69 1889.33 1004.5 1910.37 C 484.31 1931.41 45.5594 1526.77 24.5147 1006.58 C 3.47007 486.398 408.101 47.6429 928.286 26.5923 z M 1444.63 1083.66 C 1450.53 1089.05 1453.06 1091.97 1458.16 1098.2 L 1459.64 1094.89 C 1455.52 1089.41 1451.65 1083.71 1447.76 1078.06 C 1447.48 1081 1446.63 1081.4 1444.63 1083.66 z"/>
<path transform="translate(0,0)" fill="rgb(46,50,145)" d="M 935.249 1287.43 C 950.092 1286.15 976.663 1287.26 991.638 1288.14 C 1064.64 1291.72 1136.59 1307.06 1204.7 1333.56 C 1326.35 1380.09 1430.68 1463.02 1503.46 1571.03 C 1517.5 1592.23 1533.38 1619.06 1543.56 1642.32 C 1528.67 1646.67 1506.44 1650.19 1490.79 1652.94 C 1476.05 1655.53 1455.36 1659.95 1440.88 1661.27 C 1429.35 1694.17 1417.81 1736.23 1407.4 1770.19 C 1400.33 1731.85 1359.4 1668.1 1334.45 1638.15 C 1247.56 1533.84 1127.64 1480.78 994.612 1468.1 C 911.307 1461.68 827.687 1475.53 750.894 1508.44 C 659.422 1548.27 582.005 1613.68 532.764 1701.13 C 519.281 1725.08 511.905 1743.98 501.874 1769.42 C 503.487 1750.98 502.844 1726.89 502.854 1708.03 L 502.838 1607.07 L 385.44 1607.1 C 400.648 1574.94 440.195 1524.32 464.114 1498.15 C 568.104 1385.96 708.015 1313.61 859.674 1293.61 C 883.793 1290.21 911.017 1288.54 935.249 1287.43 z"/>
<path transform="translate(0,0)" fill="rgb(255,254,255)" d="M 582.653 1478.14 C 594.068 1469.31 618.475 1449.64 629.069 1442.67 C 659.191 1422.84 721.27 1386.54 755.522 1381.13 C 756.456 1378.59 753.601 1374.45 752.074 1370.94 L 752.805 1369.48 L 755.067 1369.76 C 764.311 1378.29 763.404 1373.89 775.313 1374.94 C 777.432 1375.12 782.886 1377.64 785.078 1378.63 C 779.128 1380.68 773.224 1382.86 767.37 1385.17 C 773.834 1401.75 784.911 1433.17 789.077 1449.41 C 784.536 1447.01 781.488 1445.18 777.217 1442.45 C 773.936 1432.71 762.641 1394.1 755.769 1390.26 C 751.348 1389.98 747.112 1391.98 742.806 1393.5 C 749.567 1411.65 761.384 1437.28 769.557 1455.29 C 761.911 1451.84 757.863 1448.64 751.009 1443.7 C 750.278 1444.19 747.691 1445.98 747.073 1446.26 C 746.766 1453.54 745.756 1459.35 736.78 1458.08 C 730.233 1453.57 730.951 1449.74 733.304 1443.04 C 730.759 1441.66 729.758 1440.67 727.507 1438.88 C 719.163 1441.44 714.451 1436.46 707.572 1431.92 C 717.097 1416.85 723.225 1409.35 736.213 1396.8 C 722.335 1402.63 671.661 1423.49 665.15 1434.18 C 671.686 1438.28 684.676 1426.76 689.19 1422.09 C 693.935 1423.18 698.957 1424.24 703.645 1425.46 C 702.894 1443.24 703.456 1452.4 716.224 1465.05 C 718.055 1466.86 720.524 1470.72 719.005 1473.78 C 709.263 1476.67 704.142 1465.46 699.291 1458.13 C 698.086 1461.45 698.175 1461.62 697.884 1464.99 C 689.738 1488.27 673.419 1488.46 654.451 1474.49 C 647.104 1469.07 641.742 1460.15 636.069 1452.93 L 632.125 1452.83 C 613.193 1470.71 623.412 1500.57 645.898 1507.56 C 645.579 1504.05 645.237 1505.43 644.282 1503.12 C 636.97 1485.43 667.388 1487.17 662.682 1503.57 C 660.962 1509.57 652.639 1513.28 646.347 1515.7 C 619.681 1507.37 612.444 1495.9 610.365 1469.09 C 603.21 1474.27 597.411 1478.86 590.603 1484.5 C 599.475 1493 627.325 1525.52 635.418 1536.08 C 631.743 1535.77 626.087 1535.1 622.564 1535.06 C 612.796 1524.27 592.962 1499.18 583.434 1492.12 C 578.564 1494.78 561.599 1508.85 560.262 1513.65 C 568.344 1513.55 566.419 1511.22 579.537 1512.11 C 592.357 1520.69 591.538 1526.19 588.311 1540.71 C 599.224 1536.08 610.199 1533.27 622.214 1535.7 L 622.885 1536.29 C 625.721 1538.77 627.191 1539.77 630.356 1541.79 C 626.898 1543.54 621.384 1542.65 617.443 1542.92 C 600.989 1544.06 585.921 1552.1 572.409 1560.17 C 565.503 1557.38 560.217 1555.19 553.619 1551.8 L 552.979 1549.95 L 552.442 1544.11 C 546.479 1534.96 551.387 1531.39 548.651 1526.1 C 545.571 1527.69 539.264 1533.9 536.402 1536.53 L 522.443 1538.91 C 532.63 1525 554.448 1505.83 566.619 1492.6 C 568.79 1490.24 576.514 1487.32 578.829 1484.56 C 576.296 1481.93 574.797 1480.15 572.553 1477.26 L 572.803 1475.83 C 577.202 1475.48 578.404 1476.39 582.653 1478.14 z"/>
<path transform="translate(0,0)" fill="rgb(54,58,121)" d="M 632.125 1452.83 C 635.882 1449.86 643.993 1443.14 648.524 1443.07 C 653.078 1448.18 646.438 1463.45 667.225 1465.72 C 675.626 1466.64 679.148 1454.07 686.559 1455.94 C 690.197 1468.31 670.297 1479.2 659.443 1467.65 C 656.773 1464.8 641.861 1450.6 641.023 1450.37 C 638.695 1451.31 638.037 1451.42 636.069 1452.93 L 632.125 1452.83 z"/>
<path transform="translate(0,0)" fill="rgb(54,58,121)" d="M 566.169 1541.37 L 566.371 1539.51 C 567.258 1530.72 564.499 1527.12 570.048 1520.27 C 573.526 1518.63 571.766 1518.82 575.514 1519.73 C 582.85 1527.02 576.494 1536.21 570.443 1541.85 C 569.871 1542.38 569.29 1542.9 568.701 1543.41 L 566.169 1541.37 z"/>
<path transform="translate(0,0)" fill="rgb(255,254,255)" d="M 733.304 1443.04 C 740.013 1442.14 741.682 1442.23 747.073 1446.26 C 746.766 1453.54 745.756 1459.35 736.78 1458.08 C 730.233 1453.57 730.951 1449.74 733.304 1443.04 z"/>
<path transform="translate(0,0)" fill="rgb(54,58,121)" d="M 697.884 1464.99 C 695.476 1449.04 689.486 1452.87 678.913 1442.85 L 679.261 1441.92 C 682.8 1439.93 683.333 1439.31 687.219 1439.27 C 692.693 1441.19 695.207 1450.89 699.291 1458.13 C 698.086 1461.45 698.175 1461.62 697.884 1464.99 z"/>
<path transform="translate(0,0)" fill="rgb(54,58,121)" d="M 727.507 1438.88 C 736.512 1437.65 743.148 1439.06 751.009 1443.7 C 750.278 1444.19 747.691 1445.98 747.073 1446.26 C 741.682 1442.23 740.013 1442.14 733.304 1443.04 C 730.759 1441.66 729.758 1440.67 727.507 1438.88 z"/>
<path transform="translate(0,0)" fill="rgb(54,58,121)" d="M 566.169 1541.37 L 568.701 1543.41 C 563.716 1546.97 562.701 1546.96 556.868 1548.73 L 552.979 1549.95 L 552.442 1544.11 C 558.834 1544.82 560.635 1544.59 566.169 1541.37 z"/>
<path transform="translate(0,0)" fill="rgb(54,58,121)" d="M 737.368 1411.58 C 741.816 1413.11 747.604 1426.76 747.947 1431.55 L 746.856 1432.48 L 742.345 1430.53 C 735.153 1428.68 732.426 1428.2 725.03 1427.51 C 729.179 1422.36 733.313 1416.84 737.368 1411.58 z"/>
<path transform="translate(0,0)" fill="rgb(54,58,121)" d="M 661.632 1443.03 C 666.445 1443.66 670.669 1443.48 675.503 1443.44 L 668.808 1452.13 C 666.948 1454.78 667.179 1454.84 664.28 1456.14 L 662.623 1455.24 C 660.898 1450.92 661.454 1447.71 661.632 1443.03 z"/>
<path transform="translate(0,0)" fill="rgb(255,254,255)" d="M 1241.16 1429.83 C 1232.22 1424.39 1203.35 1410.93 1202.83 1400.37 L 1204.36 1398.25 C 1210.28 1399.28 1229 1412.1 1236.09 1415.69 C 1275.89 1435.85 1309.17 1462.64 1342.37 1491.83 C 1370.6 1516.65 1389.14 1541.08 1413.01 1569.97 L 1411.97 1583.98 C 1403.72 1573.67 1385.81 1550.63 1375.73 1543.91 C 1381.98 1558.82 1382.52 1561.62 1396.24 1569.99 L 1393.73 1585.22 C 1385.15 1586.07 1377.25 1587.46 1369.64 1591.96 C 1363.65 1595.5 1356.96 1607.67 1350.68 1607.72 C 1347.91 1605.43 1349 1606.86 1347.89 1602.91 C 1348.98 1596.17 1366 1582.4 1371.86 1578.31 L 1368.61 1576.4 C 1353.21 1592.96 1330.26 1582.82 1333.31 1559.7 C 1334.8 1548.37 1348.66 1522.89 1361.32 1524.48 L 1361.96 1523.65 C 1358.71 1519.59 1353.19 1514.7 1349.25 1510.99 C 1336.02 1526.46 1320.27 1544.14 1306.41 1559.04 L 1304.96 1559.09 C 1295.48 1541.1 1336.83 1526.7 1326.34 1511.52 C 1320.28 1512.26 1320.68 1516.84 1314.99 1516.44 L 1313.66 1514.13 L 1309.32 1513.03 C 1305.87 1516.64 1302.9 1517.93 1297.97 1515.62 C 1272.12 1503.52 1294.92 1471.4 1316.57 1485.18 L 1317.63 1483.06 C 1311.08 1476.64 1306 1471.59 1296.57 1469.56 C 1288.94 1467.89 1280.96 1469.4 1274.47 1473.75 C 1262.3 1481.76 1258.66 1492.1 1255.82 1505.3 C 1260.29 1500.32 1264.8 1495.72 1272.11 1496.84 C 1276.18 1499.33 1278.05 1507.26 1275.97 1510.07 C 1263.18 1527.27 1244.16 1505.8 1250.79 1489.25 C 1252.54 1484.88 1253.45 1481.89 1255.65 1477.56 C 1252.45 1475.52 1252.47 1475.7 1248.87 1475.3 C 1238.28 1477.6 1233.43 1476.61 1231.5 1465.2 L 1231.25 1463.7 L 1229.92 1463.8 C 1225.61 1469.61 1219.28 1485.6 1214.76 1486.94 C 1212.78 1482.61 1213.69 1465.86 1212.19 1461.48 C 1209.32 1453.1 1194.22 1441.37 1197.14 1430.92 C 1203.04 1425.44 1232.46 1428.47 1241.16 1429.83 z"/>
<path transform="translate(0,0)" fill="rgb(54,58,121)" d="M 1243.89 1431.08 C 1251.83 1435.42 1275.98 1448.59 1280.8 1454.96 L 1280.92 1457.3 C 1273.9 1464.47 1264.97 1462.75 1255.65 1477.56 C 1252.45 1475.52 1252.47 1475.7 1248.87 1475.3 C 1264.2 1464.13 1260.36 1446.22 1247.7 1434.63 L 1243.89 1431.08 z"/>
<path transform="translate(0,0)" fill="rgb(54,58,121)" d="M 1361.96 1523.65 C 1364.2 1526.37 1368.25 1530.44 1368.54 1533.63 C 1364.66 1538.17 1348.23 1532.62 1350.28 1558.71 L 1350.39 1559.89 C 1347.87 1561.25 1346.44 1561.89 1344.25 1563.8 C 1345.23 1533.44 1360.29 1536.83 1361.32 1524.48 L 1361.96 1523.65 z"/>
<path transform="translate(0,0)" fill="rgb(54,58,121)" d="M 1350.39 1559.89 C 1354.88 1566.19 1362.36 1567.12 1362.55 1573.45 C 1357.4 1577.92 1347.21 1569.42 1344.25 1563.8 C 1346.44 1561.89 1347.87 1561.25 1350.39 1559.89 z"/>
<path transform="translate(0,0)" fill="rgb(36,41,63)" d="M 1317.63 1483.06 C 1324.45 1489.13 1339.05 1499.77 1340.39 1507.41 L 1339.58 1509.67 L 1338.05 1509.94 C 1332.77 1500.38 1337.93 1500.29 1325.14 1498.5 C 1321.11 1494.04 1322.8 1491.17 1316.57 1485.18 L 1317.63 1483.06 z"/>
<path transform="translate(0,0)" fill="rgb(54,58,121)" d="M 1368.61 1576.4 C 1369.56 1573.11 1371.59 1564.36 1373.67 1562.42 C 1376.06 1565.3 1378.2 1570.73 1379.83 1574.31 C 1376.91 1575.66 1374.63 1576.7 1371.86 1578.31 L 1368.61 1576.4 z"/>
<path transform="translate(0,0)" fill="rgb(36,41,63)" d="M 1309.32 1513.03 C 1311.63 1507.12 1313.09 1501.19 1307.29 1496.65 C 1302.83 1495.5 1302.37 1496.13 1297.82 1497.73 C 1302.06 1485.95 1319.86 1498.48 1313.66 1514.13 L 1309.32 1513.03 z"/>
<path transform="translate(0,0)" fill="rgb(54,58,121)" d="M 1213.01 1440.09 C 1219.22 1439.93 1226.34 1440.16 1232.63 1440.22 C 1229.47 1444.8 1227.56 1448.64 1225.02 1453.53 C 1223.89 1455.85 1223.99 1455.92 1222.21 1457.72 L 1219.93 1456.79 C 1216.27 1452.71 1214.41 1445.41 1213.01 1440.09 z"/>
<path transform="translate(0,0)" fill="rgb(54,58,121)" d="M 1241.11 1444.43 C 1245.32 1447.23 1250.01 1454.23 1247.53 1459.21 C 1244.06 1459.58 1244.67 1459.12 1240.92 1457.05 C 1238.41 1457.87 1233.87 1459.96 1231.27 1461.06 C 1234.88 1455.77 1237.96 1450.01 1241.11 1444.43 z"/>
<path transform="translate(0,0)" fill="rgb(54,58,121)" d="M 1364.91 1547.13 C 1372.59 1546.61 1373.08 1553.11 1371.07 1558.83 L 1369.42 1557.9 C 1368.42 1557.41 1367.42 1556.92 1366.42 1556.42 C 1362.69 1554.55 1359.47 1553.43 1358.25 1549.75 C 1360.75 1547.21 1360.62 1547.96 1364.91 1547.13 z"/>
<path transform="translate(0,0)" fill="rgb(255,254,255)" d="M 982.634 1344.27 C 986.316 1344.86 994.305 1346.59 997.427 1345.89 C 993.923 1333.92 995.682 1335.75 1002.81 1326.76 C 1017.08 1308.75 1062.92 1328.93 1061.14 1349.49 C 1062.83 1351.34 1063.77 1351.88 1064.04 1354.29 C 1068.72 1355.27 1090.17 1359.85 1093.41 1359.43 C 1089.65 1331.92 1133.04 1334.26 1145.37 1351.66 C 1150.1 1358.34 1154.54 1360.26 1156.14 1369.84 L 1155 1372.57 L 1153.43 1372.42 L 1152.65 1371.35 C 1146.07 1362.52 1134.63 1351.55 1123.42 1349.84 C 1117.9 1349.01 1112.27 1350.37 1107.72 1353.61 C 1105.1 1355.51 1102.11 1358.81 1099.96 1361.28 C 1113.52 1365.18 1109.89 1364.88 1120.78 1373.19 C 1121.56 1373.78 1126.41 1373.56 1127.64 1373.46 C 1145.73 1372.03 1145.42 1377.81 1154.47 1388.99 C 1157.1 1385.6 1159.91 1374.59 1161.37 1369.89 C 1164.56 1371.23 1163.14 1370.24 1165.37 1373.45 C 1166.63 1386.9 1171.07 1382.65 1178.71 1397.16 L 1162.9 1391.53 C 1157.88 1408.11 1145.85 1445.98 1137.49 1459.87 C 1135.35 1431.09 1132.93 1435.14 1108.41 1425.35 C 1102.78 1423.1 1097.76 1415.94 1094.12 1410.99 C 1092.45 1413.68 1088.25 1433.55 1087.24 1437.8 L 1080.53 1426.01 C 1084.07 1410.5 1089.85 1385.41 1094.71 1370.83 C 1080.87 1367.01 1066.83 1363.98 1052.65 1361.76 C 1050.93 1368.88 1049.85 1376.8 1048.69 1384.1 C 1053.63 1381.39 1059.19 1376.85 1064.35 1373.56 C 1068.68 1373.67 1066.7 1373.12 1070.49 1375.38 C 1073.33 1379.49 1074.11 1384.7 1074.01 1389.65 C 1073.77 1402.69 1072.19 1407.31 1063.77 1416.09 C 1035.38 1422.66 1024.44 1408.1 1022.97 1380.96 C 1022.52 1372.68 1022.4 1365.72 1024.33 1357.56 L 1008.63 1356.85 C 1007.69 1378.58 1005.88 1400.93 1004.39 1422.67 C 1001.34 1419.58 998.162 1415.73 995.276 1412.42 C 995.915 1401.06 1000.79 1363.72 999.509 1357.09 C 989.218 1354.08 989.905 1352.84 982.634 1344.27 z"/>
<path transform="translate(0,0)" fill="rgb(54,58,121)" d="M 1025.28 1329.44 C 1042.47 1334.08 1047.6 1338.17 1061.14 1349.49 C 1062.83 1351.34 1063.77 1351.88 1064.04 1354.29 C 1046.26 1350.43 1027.5 1348.67 1009.49 1346.21 C 1007.82 1345.98 1006.85 1344.95 1005.76 1343.8 C 1005.09 1336.27 1019.23 1331.24 1025.28 1329.44 z"/>
<path transform="translate(0,0)" fill="rgb(54,58,121)" d="M 1028.33 1357.73 C 1032.61 1358.29 1039.13 1359.7 1043.53 1360.51 C 1031.28 1420.05 1060.03 1387.56 1067.4 1389.79 L 1068.04 1392.86 C 1065.21 1398.61 1061.08 1403.68 1054.32 1404.33 C 1028.86 1406.8 1029.25 1374.48 1028.33 1357.73 z"/>
<path transform="translate(0,0)" fill="rgb(54,58,121)" d="M 1102.62 1373.29 C 1106.41 1373.91 1111.75 1374.16 1114.23 1376.7 C 1114.84 1380.56 1112.1 1383.43 1111.62 1389.58 C 1112.2 1391.81 1112.56 1392.5 1113.52 1394.61 C 1119.23 1399.03 1126.68 1397.01 1134.31 1396.32 C 1125.11 1402.09 1118.93 1402.53 1113.06 1411.96 L 1110.81 1411.64 C 1100.39 1403.44 1103.76 1403.57 1105.78 1392.64 L 1103.74 1389.7 C 1099.38 1385.57 1101.74 1378.97 1102.62 1373.29 z"/>
<path transform="translate(0,0)" fill="rgb(54,58,121)" d="M 1127.02 1385.17 C 1129.19 1384.87 1131.39 1384.78 1133.58 1384.88 C 1155.44 1385.91 1145.64 1423.81 1138.61 1429.54 L 1137.73 1428.17 C 1133.85 1423.64 1129.06 1421.08 1123.96 1418.26 C 1141.52 1408 1145.05 1396.53 1127.02 1385.17 z"/>
<path transform="translate(0,0)" fill="rgb(255,254,255)" d="M 808.664 1360.87 C 848.313 1354.93 885 1344.95 925.42 1344.99 C 934.56 1345 956.097 1340.58 961.047 1350 C 954.697 1356.34 917.425 1351.37 916.464 1358.58 C 921.492 1366.02 936.654 1360.37 942.998 1356.82 C 946.884 1360.46 951.59 1364.68 955.245 1368.43 C 927.961 1405.17 965.064 1423.3 964.634 1439.3 C 960.334 1439.82 949.283 1427.8 945.575 1424.41 C 941.369 1428.1 939.444 1428.87 934.554 1431.27 C 925.216 1428.58 915.826 1425.56 922.171 1413.32 C 920.052 1412.17 918.598 1410.78 916.765 1409.23 C 888.115 1407.23 885.016 1379.99 882.957 1357.55 C 875.596 1358 863.268 1360.83 856.198 1363.11 C 867.897 1368.9 871.028 1372.49 874.372 1384.73 C 869.91 1394.33 869.077 1394.95 860.537 1401.32 C 880.662 1406.86 888.349 1408.7 896.672 1429.13 L 894.197 1427.24 C 874.996 1412.58 859.662 1409.87 836.583 1408.43 C 833.843 1402.12 829.408 1396.21 826.143 1389.65 L 827.894 1388.73 C 830.832 1389.43 831.093 1389.77 833.989 1388.81 C 830.289 1382.81 830.039 1379.98 832.517 1373.44 C 830.198 1370.7 829.666 1370.48 826.753 1368.62 C 817.616 1369.56 816.381 1366.58 808.664 1360.87 z"/>
<path transform="translate(0,0)" fill="rgb(54,58,121)" d="M 922.707 1370.13 C 926.172 1370.64 934.796 1371.29 936.892 1373.04 L 936.609 1374.36 C 934.035 1386.99 935.513 1398.18 939.887 1410.19 C 932.807 1408.89 927.743 1407.71 922.171 1413.32 C 920.052 1412.17 918.598 1410.78 916.765 1409.23 C 938.831 1402.95 935.06 1384.42 922.707 1370.13 z"/>
<path transform="translate(0,0)" fill="rgb(54,58,121)" d="M 833.989 1388.81 C 853.39 1388.47 848.113 1377.42 856.754 1373.79 C 862.037 1374.65 864.275 1377.77 863.534 1382.95 C 856.571 1393.35 838.046 1396.15 827.894 1388.73 C 830.832 1389.43 831.093 1389.77 833.989 1388.81 z"/>
<path transform="translate(0,0)" fill="rgb(54,58,121)" d="M 826.753 1368.62 C 832.435 1366.98 838.225 1365.42 843.788 1363.45 C 840.578 1366.38 835.867 1370.95 832.517 1373.44 C 830.198 1370.7 829.666 1370.48 826.753 1368.62 z"/>
<path transform="translate(0,0)" fill="rgb(54,58,121)" d="M 885.077 1357.05 C 889.595 1356.88 895.784 1355.46 898.077 1359.65 C 896.799 1370.26 890.979 1372.2 899.481 1382.57 C 908.409 1393.47 920.115 1381.21 926.127 1387.7 C 921.758 1394.04 919.101 1394.24 911.786 1396.54 C 886.537 1386.28 896.512 1368.35 885.077 1357.05 z"/>
<path transform="translate(0,0)" fill="rgb(54,58,121)" d="M 909.211 1363.59 C 912.741 1365.62 916.007 1366.71 918.814 1369.58 L 918.709 1371.39 L 914.676 1373.98 C 910.909 1375.34 907.87 1377.42 905.153 1374.04 C 905.096 1370.24 907.366 1367.03 909.211 1363.59 z"/>
<path transform="translate(0,0)" fill="rgb(255,254,255)" d="M 817.509 1399 C 819.592 1398.77 819.446 1398.73 821.346 1399.6 C 822.734 1402.58 823.305 1403.27 823.156 1406.6 C 819.837 1411.99 802.403 1415.52 795.182 1417.56 C 793.483 1417.26 793.42 1417.01 791.818 1416.19 C 789.405 1412.32 789.488 1413.64 789.441 1409.63 C 793.129 1404.49 810.256 1401.18 817.509 1399 z"/>
<path transform="translate(0,0)" fill="rgb(8,164,85)" d="M 1202.13 236.96 C 1191.44 213.914 1182.29 194.549 1176.03 169.497 C 1172.51 155.415 1182.59 122.884 1195.17 130.504 C 1207.12 137.745 1230.99 173.226 1237.82 186.11 C 1242.04 194.009 1245.42 202.333 1247.88 210.943 C 1252.81 227.886 1253.25 245.818 1249.17 262.984 C 1257.58 268.263 1266.03 273.801 1274.86 278.321 C 1267.14 250.699 1265.81 227.709 1273.61 199.497 C 1275.96 191.006 1279.51 183.139 1282.09 175.013 C 1299.39 195.135 1309.7 209.65 1316.31 236.061 C 1323.2 263.58 1319.71 279.612 1314.19 306.669 C 1320.79 311.203 1331.68 319.071 1337.65 324.384 C 1331.7 287.882 1340.35 260.356 1366.62 234.956 C 1372.61 248.681 1379.26 264.334 1382.71 278.855 C 1388.25 302.271 1390.87 338.935 1381.74 361.665 C 1387.14 365.985 1392.51 370.339 1397.85 374.726 C 1397.88 345.937 1401.95 311.822 1423.19 290.205 C 1427.17 286.154 1430.26 283.612 1435.93 283.461 C 1448.98 287.628 1452.33 319.267 1453.43 330.876 C 1456.26 360.665 1456.52 393.71 1440.57 420.004 C 1446.61 426.538 1452.51 433.199 1458.26 439.984 C 1462.22 415.061 1477.79 362.61 1504.95 354.459 C 1526.06 358.723 1520.69 435.575 1516.71 452.375 C 1513.16 467.341 1507.59 482.189 1498.29 494.505 C 1504.79 503.628 1510.79 513.097 1516.26 522.871 C 1525.88 501.749 1536.26 476.322 1549.65 457.645 C 1572.03 426.428 1578.74 444.265 1578.09 472.117 C 1577.07 515.71 1573.15 541.888 1541.53 573.339 C 1545.63 580.216 1547.01 582.438 1549.13 590.407 C 1561.22 561.556 1574.93 535.187 1604.43 520.856 C 1615.05 515.7 1622.47 521.128 1623.57 532.21 C 1628.23 579.678 1614.7 627.988 1569.79 650.248 C 1571.95 657.422 1574.04 664.764 1576.71 671.747 L 1577.26 671.085 C 1593.78 650.917 1611.65 615.819 1638.31 607.518 C 1651.53 603.402 1655.49 624.355 1655.73 633.386 C 1656.48 661.672 1649.93 691.485 1629.63 712.251 C 1617.83 724.354 1602.39 732.254 1585.67 734.737 C 1586.88 743.23 1587.88 751.752 1588.66 760.294 C 1600.94 750.806 1642.51 716.117 1654.24 716.428 C 1669.86 722.622 1659.53 756.795 1654.56 767.952 C 1640.29 800.033 1621.57 814.078 1588.02 820.843 C 1587.64 829.877 1586.99 840.528 1585.69 849.47 C 1604.67 840.165 1700.83 788.459 1671.13 852.955 C 1660.9 875.118 1642.2 892.244 1619.23 900.489 C 1604.79 905.741 1593.41 906.197 1578.27 905.835 C 1577.31 917.348 1575.19 926.611 1573.01 937.889 C 1593.28 929.092 1692.01 888.824 1653.16 950.046 C 1643.64 965.045 1628.61 974.383 1612.89 981.847 L 1613.08 983.668 C 1609.73 984.954 1608.47 985.293 1604.97 986.075 C 1611.73 986.385 1623.12 986.302 1629.09 987.89 C 1675.4 996.601 1632.91 1040.65 1612.29 1051.86 C 1591.28 1063.29 1559.18 1061.55 1536.63 1056.79 C 1532.34 1065.38 1528.02 1076.9 1523.92 1084.43 C 1539.88 1080.86 1634.38 1063.21 1609.58 1104.63 C 1591.61 1134.64 1531.44 1151.22 1500.79 1131.55 C 1496.96 1138.42 1492.85 1146.19 1488.82 1152.86 C 1514.86 1149.24 1561.1 1148.06 1584.67 1161.12 C 1591.88 1165.11 1589.03 1175.43 1582.72 1179.66 C 1558.07 1196.17 1521.39 1201.17 1492.11 1200.56 C 1484.95 1200.22 1470.05 1195.91 1463.87 1193.95 C 1457.19 1203.4 1450.63 1212.94 1444.19 1222.55 C 1472.47 1225.09 1523.72 1241.93 1548.02 1257.54 C 1535.48 1267.55 1525.17 1274.63 1509.22 1278.29 C 1479.78 1285.03 1441.53 1274.57 1418.79 1254.96 C 1412.5 1264.76 1400.75 1278.23 1392.47 1286.83 C 1417.95 1290.28 1455.7 1294.29 1474.6 1314.83 C 1481.98 1322.86 1478.36 1334.72 1469.11 1339.34 C 1450.43 1349.35 1424.2 1349.54 1404.25 1344.04 C 1388.34 1339.57 1373.69 1331.46 1361.44 1320.36 C 1354.12 1328.09 1346.55 1335.57 1338.74 1342.8 C 1376.78 1341.88 1413.27 1351.84 1437.61 1382.94 C 1422.61 1395.45 1405.92 1399.02 1386.88 1396.88 C 1320.17 1389.37 1262.42 1344.03 1269.93 1271.79 C 1271.83 1253.41 1275.48 1241.8 1281.72 1224.8 C 1290.5 1235.37 1302.41 1247.9 1307.41 1260.62 C 1317 1284.98 1321.38 1313.68 1324.96 1339.41 C 1333.98 1330.72 1343.7 1321.65 1352.43 1312.77 C 1327.14 1284.06 1318.43 1255.97 1320.59 1217.71 C 1321.2 1207.1 1326.59 1187.42 1340.71 1190.42 C 1372.53 1197.16 1381.29 1255.37 1381.11 1281.63 C 1391.37 1270.34 1401.17 1258.64 1410.48 1246.56 C 1382.23 1219.73 1373.72 1167.54 1376.89 1130.46 C 1417.07 1153.61 1424.81 1170.39 1433.66 1216.47 C 1440.03 1207.18 1447.4 1196.87 1453.32 1187.42 C 1427.57 1169.56 1417.47 1142.58 1411.11 1112.91 C 1404.33 1081.23 1409.15 1052.1 1444.63 1083.66 C 1450.53 1089.05 1453.06 1091.97 1458.16 1098.2 L 1459.64 1094.89 C 1455.52 1089.41 1451.65 1083.71 1447.76 1078.06 C 1438.82 1060.61 1434.45 1050.29 1435.19 1030.89 C 1438.72 1025.11 1440.63 1023.09 1445.45 1018.77 C 1479.32 1033.42 1492.99 1048.67 1513.65 1079.18 C 1516.54 1071.47 1520.74 1062.29 1524.02 1054.59 C 1494.3 1037.57 1481.82 1020.01 1465.17 989.663 C 1455.06 971.249 1450.15 927.26 1484.55 942.2 C 1505.63 951.355 1534.01 979.082 1542.86 1000.87 C 1545.78 994.362 1548.03 985.336 1550.01 978.308 C 1542.77 974.611 1535.68 970.612 1528.76 966.322 C 1508.66 953.629 1487.12 935.728 1481.01 911.515 C 1478.08 904.06 1484.67 887.797 1493.68 887.874 C 1515.02 888.058 1547.12 914.153 1562.81 926.108 C 1564.42 918.995 1565.53 912.608 1566.72 905.406 C 1529.25 893.755 1492.85 872.928 1478.13 833.528 C 1476.46 829.053 1475.3 824.339 1477.58 819.806 C 1482.97 809.077 1492.36 811.108 1502.04 813.908 C 1527.17 821.929 1551.54 834.497 1574.46 847.287 C 1575.09 838.401 1575.57 829.505 1575.89 820.603 C 1540.83 813.076 1502.63 796.737 1480.59 767.239 C 1472.03 755.781 1475.22 747.219 1486.23 740.139 C 1506.91 738.602 1552.88 757.436 1576.06 764.005 C 1575.79 755.078 1575.02 745.461 1574.47 736.493 C 1561.24 736.889 1548 735.676 1535.06 732.882 C 1511.48 727.547 1480.19 711.378 1466.39 690.574 C 1459.35 679.963 1465.44 673.889 1475.08 669.435 C 1487.62 670.421 1504.51 674.942 1517.33 677.482 C 1533.58 680.578 1550 682.771 1566.5 684.052 C 1564 673.496 1561.38 664.213 1558.34 653.826 C 1557.56 653.97 1556.79 654.108 1556.01 654.239 C 1520.75 660.159 1474.28 653.853 1444.78 632.484 C 1436.75 626.667 1427.47 618.291 1426.31 607.794 C 1425.95 604.619 1426.43 601.039 1428.61 598.598 C 1435.18 591.261 1506.93 605.671 1519.36 607.172 C 1527.54 608.16 1535.75 608.154 1543.97 608.118 C 1539.93 598.011 1536.32 589.368 1531.72 579.49 C 1497.09 600.991 1415.63 578.812 1399.89 541.845 C 1401.34 539.249 1403.8 534.866 1406.37 533.52 C 1431.55 520.345 1485.91 534.193 1511.64 540.031 C 1507.57 532.487 1495.32 509.415 1489.7 504.897 C 1466.37 512.557 1469.3 513.562 1444 514.363 C 1430.11 514.803 1323.96 510.324 1347.25 483.356 C 1364.72 463.126 1429.03 462.559 1458.3 459.639 C 1449.89 449.171 1441.25 438.894 1432.38 428.816 C 1431.59 429.294 1430.78 429.752 1429.97 430.191 C 1403.91 444.545 1358.46 452.959 1330.37 444.119 C 1294.34 432.779 1303.18 410.395 1337.16 406.09 C 1353.79 403.983 1377.84 394.189 1392.85 387.122 C 1386.47 381.587 1380.13 376.004 1373.84 370.373 C 1350.3 386.706 1300.15 405.694 1271.58 407.146 C 1264.98 407.404 1252.29 407.144 1247.81 401.627 C 1233.85 384.462 1257.12 367.629 1267.79 358.386 C 1267.21 355.384 1267.72 356.838 1264.75 354.25 C 1234.89 366.298 1212.79 366.835 1182.54 355.472 C 1174.98 352.634 1162.99 344.031 1169.79 335.685 C 1187.88 313.513 1236.44 302.756 1263.04 296.425 L 1274.76 293.696 C 1263.23 286.385 1246.96 276.758 1236.2 269.039 C 1199.43 318.248 1155.6 323.079 1097.68 317.584 C 1116.95 289.747 1143.55 262.387 1174.82 247.667 C 1178.58 245.897 1181.43 245.345 1184.39 242.362 C 1183.95 240.955 1184.26 240.901 1183.11 240.246 C 1168.84 232.097 1102.1 277.005 1065.54 231.485 C 1056.65 220.417 1051.92 206.918 1047.12 193.747 L 1046.65 192.455 C 1081.08 187.312 1178.88 174.241 1184.8 224.722 L 1184.93 226.005 L 1185.12 227.514 C 1185.15 227.816 1185.18 228.119 1185.21 228.421 C 1190.82 231.198 1196.64 233.989 1202.13 236.96 z"/>
<path transform="translate(0,0)" fill="rgb(255,254,255)" d="M 1307.82 316.663 C 1316.21 322.946 1325.48 330.357 1333.86 336.345 C 1316.93 338.965 1304.09 340.336 1288.11 346.864 C 1287.33 344.922 1286.95 341.484 1286.59 339.278 C 1294.07 332.421 1301.84 324.914 1307.82 316.663 z"/>
<path transform="translate(0,0)" fill="url(#Gradient1)" d="M 1459.64 1094.89 C 1469.3 1106.54 1478.84 1115.15 1490.13 1125.1 C 1486.08 1134.32 1480.7 1143.4 1475.74 1152.22 C 1473.23 1133.24 1467.78 1114.79 1458.16 1098.2 L 1459.64 1094.89 z"/>
<path transform="translate(0,0)" fill="rgb(255,254,255)" d="M 1560.6 983.017 C 1573.05 985.958 1577.94 987.687 1590.33 986.661 L 1594.31 988.805 C 1593.38 990.882 1593.43 990.732 1591.66 992.189 C 1578.72 996.284 1565.07 1003.04 1552.75 1008.9 C 1556.33 1000.27 1559.07 992.233 1560.6 983.017 z"/>
<path transform="translate(0,0)" fill="rgb(204,255,246)" d="M 1286.59 339.278 C 1286.95 341.484 1287.33 344.922 1288.11 346.864 C 1279.43 350.764 1275.7 353.042 1267.79 358.386 C 1267.21 355.384 1267.72 356.838 1264.75 354.25 C 1272.92 348.351 1277.74 346.532 1286.59 339.278 z"/>
<path transform="translate(0,0)" fill="rgb(204,255,246)" d="M 1590.33 986.661 C 1597.13 985.784 1606.04 983.44 1612.89 981.847 L 1613.08 983.668 C 1609.73 984.954 1608.47 985.293 1604.97 986.075 C 1611.73 986.385 1623.12 986.302 1629.09 987.89 C 1614.69 988.027 1605.76 987.988 1591.66 992.189 C 1593.43 990.732 1593.38 990.882 1594.31 988.805 L 1590.33 986.661 z"/>
<path transform="translate(0,0)" fill="rgb(255,254,255)" d="M 1638.54 619.846 C 1639.36 619.92 1640.35 620.431 1641.2 620.772 C 1641.55 621.492 1642.34 623.07 1642.42 623.886 C 1646.59 669.533 1632.98 710.573 1585.32 722.695 C 1583.79 719.312 1581.36 696.492 1579.95 689.769 C 1591.5 670.091 1619.23 630.953 1638.54 619.846 z"/>
<path transform="translate(0,0)" fill="rgb(255,254,255)" d="M 1078.54 200.419 C 1101.49 199.449 1133.17 197.588 1154.51 206.04 C 1165.18 210.266 1169.66 215.827 1173.76 225.845 C 1168.78 227.991 1160.17 230.561 1154.76 232.339 C 1110.28 244.494 1083.76 248.006 1062.63 201.276 L 1078.54 200.419 z"/>
<path transform="translate(0,0)" fill="rgb(255,254,255)" d="M 1610.02 532.005 L 1611.64 533.582 C 1616.67 569.197 1603.7 617.873 1570.61 636.166 C 1568.48 637.345 1568.74 637.155 1566.61 636.46 L 1565.87 633.696 C 1562.53 624.72 1559.53 615.623 1556.88 606.424 C 1557.12 605.483 1557.38 604.546 1557.64 603.611 C 1566.08 573.617 1582.44 547.306 1610.02 532.005 z"/>
<path transform="translate(0,0)" fill="rgb(255,254,255)" d="M 1618.49 1000.42 C 1623.64 999.953 1630.36 1000 1635.18 1001.96 C 1641.05 1011.3 1626.76 1024.67 1620.14 1030.99 C 1601.95 1048.32 1586.47 1048.42 1562.75 1047.58 C 1554.78 1047.19 1548.32 1046.49 1540.39 1045.51 C 1542.18 1039.95 1543.97 1033.42 1548.02 1029.22 C 1564.71 1011.92 1595.35 1002.09 1618.49 1000.42 z"/>
<path transform="translate(0,0)" fill="rgb(255,254,255)" d="M 1470.72 951.668 C 1491.56 952.242 1524.54 987.878 1532.61 1006.57 C 1538.47 1020.15 1535.41 1025.21 1530.59 1037.99 C 1529.07 1041.21 1530.22 1040.16 1527.44 1041.63 C 1516.89 1039.52 1500.33 1021.66 1494.38 1013.03 C 1480.36 992.706 1467.29 976.957 1470.72 951.668 z"/>
<path transform="translate(0,0)" fill="rgb(255,254,255)" d="M 1285.32 304.357 C 1289.38 303.957 1295.35 305.67 1296.74 309.905 C 1292.9 318.789 1274.23 334.543 1265.58 339.548 C 1242.18 353.094 1224.34 353.842 1199.05 347.824 C 1191.16 345.923 1186.58 343.892 1179.01 340.732 C 1200.03 324.818 1258.95 308.024 1285.32 304.357 z"/>
<path transform="translate(0,0)" fill="rgb(255,254,255)" d="M 1201.01 251.226 C 1205.65 250.859 1219.73 260.253 1225.47 263.27 C 1223.94 265.349 1222.35 267.391 1220.72 269.394 C 1200.91 293.485 1175.33 303.491 1145.06 306.325 C 1137.86 307.33 1127.6 307.326 1120.11 307.542 C 1140.4 285.714 1170.61 256.602 1201.01 251.226 z"/>
<path transform="translate(0,0)" fill="rgb(255,254,255)" d="M 1501.98 369.624 C 1507.78 374.294 1508.4 405.913 1508.28 414.214 C 1507.94 438.529 1504.32 463.158 1491.14 484.022 C 1489.29 480.882 1487.22 478.07 1485.12 475.102 C 1479.6 466.892 1475.47 461.728 1469.25 454.199 C 1471.49 421.366 1480.28 394.288 1501.98 369.624 z"/>
<path transform="translate(0,0)" fill="rgb(255,254,255)" d="M 1331.55 349.382 C 1338.42 348.573 1342.16 348.842 1349.05 349.174 C 1354.11 352.922 1360.13 358.2 1365.07 362.316 C 1340.73 375.433 1313.22 386.956 1286.23 392.889 C 1278.56 394.221 1262.41 397.229 1257.01 390.372 C 1256.74 387.025 1256.94 385.024 1259.26 382.379 C 1279 359.887 1303.98 352.951 1331.55 349.382 z"/>
<path transform="translate(0,0)" fill="rgb(255,254,255)" d="M 1661.45 832.256 L 1662.56 832.375 L 1663.76 833.975 C 1662.92 845.785 1653.21 861.515 1644.87 869.597 C 1625.71 888.181 1609.42 892.983 1583.95 893.5 L 1582.64 893.505 C 1580.37 890.123 1583.69 869.496 1584.34 864.05 C 1604.15 853.156 1639.69 836.243 1661.45 832.256 z"/>
<path transform="translate(0,0)" fill="rgb(255,254,255)" d="M 1432.68 297.633 C 1435.23 299.477 1437.41 307.388 1438.08 310.487 C 1443.62 336.376 1446.29 386.684 1433 409.203 C 1430.61 409.174 1429.82 407.509 1427.47 405.314 C 1421.64 399.248 1415.71 393.286 1409.67 387.431 C 1409.33 355.859 1410.5 322.175 1432.68 297.633 z"/>
<path transform="translate(0,0)" fill="rgb(255,254,255)" d="M 1464.44 472.506 C 1470.75 472.19 1479.67 488.262 1483.05 493.328 C 1459.61 507.615 1409.33 502.765 1383.21 496.678 C 1374.63 494.806 1365.89 492.006 1357.44 489.48 C 1383.87 474.916 1434.12 473.398 1464.44 472.506 z"/>
<path transform="translate(0,0)" fill="rgb(255,254,255)" d="M 1487.39 823.622 C 1506.68 824.078 1553.57 850.069 1572.22 860.226 C 1571.24 870.358 1570.39 880.502 1569.67 890.656 L 1567.49 892.014 C 1562.24 891.939 1546.62 885.684 1541.59 882.932 C 1516.83 869.397 1496.28 850.693 1487.39 823.622 z"/>
<path transform="translate(0,0)" fill="rgb(255,254,255)" d="M 1191.34 144.608 C 1198.11 148.384 1213 170.014 1217.93 177.143 C 1232.51 198.251 1243.73 227.611 1238.41 253.668 C 1211.97 244.476 1204.57 211.32 1194.21 188.405 C 1188.28 175.278 1185.26 158.009 1191.34 144.608 z"/>
<path transform="translate(0,0)" fill="rgb(255,254,255)" d="M 1417.13 541.482 C 1434.54 539.268 1458.28 542.018 1475.83 544.532 C 1488.07 546.284 1501.32 552.571 1513.33 550.216 C 1515.2 549.849 1515.75 549.896 1517.54 550.631 C 1520.23 554.811 1524.47 562.219 1525.58 567.032 C 1524.37 570.328 1524.73 569.299 1521.11 571.656 C 1490.54 582.977 1451.33 570.354 1425 553.443 C 1421.72 551.335 1415.96 546.88 1415.36 543.116 L 1417.13 541.482 z"/>
<path transform="translate(0,0)" fill="rgb(255,254,255)" d="M 1562.63 1090.39 C 1573.25 1088.65 1592.6 1089.75 1602.97 1092.08 C 1602.02 1093.65 1601.01 1095.18 1599.97 1096.69 C 1587.44 1114.81 1569.06 1123.05 1547.98 1126.9 C 1531.75 1128.27 1521.78 1127.7 1506.69 1122.08 C 1510.27 1112.83 1513.89 1105.49 1519.4 1097.29 C 1533.71 1094.44 1548.13 1092.14 1562.63 1090.39 z"/>
<path transform="translate(0,0)" fill="rgb(255,254,255)" d="M 1336.99 1202.15 C 1366.13 1208.67 1368.46 1270.72 1369.68 1294.13 L 1362.99 1302.36 L 1361.9 1302.92 L 1359.82 1302.24 C 1335.93 1278.79 1325.98 1233.45 1336.99 1202.15 z"/>
<path transform="translate(0,0)" fill="rgb(255,254,255)" d="M 1487.72 752.06 C 1505.96 751.474 1554.85 771.349 1576.34 776.829 C 1577.1 787.053 1576.72 797.987 1576.15 808.213 C 1551.29 802.046 1493.2 780.757 1487.72 752.06 z"/>
<path transform="translate(0,0)" fill="rgb(255,254,255)" d="M 1440.58 608.338 C 1478.19 610.789 1505.97 619.842 1548.02 620.69 C 1551.66 628.497 1553.29 634.438 1554.94 642.776 C 1516.74 644.511 1470.48 643.848 1441.9 613.356 C 1439.86 611.181 1440.36 610.931 1440.58 608.338 z"/>
<path transform="translate(0,0)" fill="rgb(255,254,255)" d="M 1649.13 730.979 L 1650.22 732.001 C 1650.62 742.978 1645.21 761.606 1639.42 771.257 C 1626.37 792.98 1614.83 801.405 1591.23 808.071 L 1590.2 807.764 C 1587.87 803.948 1588.82 781.259 1588.86 775.319 C 1605.6 762.475 1631.85 741.664 1649.13 730.979 z"/>
<path transform="translate(0,0)" fill="rgb(255,254,255)" d="M 1383.03 1298.13 C 1387.35 1299.32 1398.47 1300.26 1403.37 1300.98 C 1429.57 1304.82 1448.17 1307.29 1468.02 1325.27 C 1462.17 1328.63 1459.3 1330.47 1452.85 1332.51 C 1420.46 1340.81 1395.74 1331.54 1369.84 1312.04 L 1383.03 1298.13 z"/>
<path transform="translate(0,0)" fill="rgb(255,254,255)" d="M 1635.96 930.337 C 1638.95 929.843 1646.43 929.647 1649.77 929.463 C 1645.49 941.015 1639.11 949.717 1629.67 957.652 C 1615.14 969.949 1596.34 976.027 1577.36 974.569 C 1573.51 973.799 1568.31 972.25 1564.4 971.216 C 1566.23 964.598 1567.89 957.935 1569.38 951.235 C 1572.42 948.932 1576.45 954.722 1578.84 952.51 C 1594.39 938.081 1614.75 933.953 1635.96 930.337 z"/>
<path transform="translate(0,0)" fill="rgb(255,254,255)" d="M 1420.76 1082.53 C 1433.27 1087.64 1447.42 1102.28 1452.95 1114.56 C 1460.09 1130.42 1468.17 1158.29 1462.4 1175.15 C 1460.88 1175.89 1460.79 1175.7 1459.04 1175.93 C 1431.69 1161.93 1420.97 1110.1 1420.76 1082.53 z"/>
<path transform="translate(0,0)" fill="rgb(255,254,255)" d="M 1400.35 397.088 L 1402.38 396.973 C 1407.46 401.173 1419.36 414.431 1424.08 419.562 C 1401.67 432.969 1371.36 435.646 1345.76 434.876 C 1339.51 433.696 1323.58 430.37 1320.54 425.001 C 1324.46 419.934 1334.93 419.375 1341.52 417.957 C 1350 416.147 1358.39 413.885 1366.64 411.18 C 1379.02 407.08 1388.61 402.573 1400.35 397.088 z"/>
<path transform="translate(0,0)" fill="rgb(255,254,255)" d="M 1476.31 681.148 C 1506.08 687.799 1537.98 694.954 1568.56 696.605 C 1570.21 704.217 1571.23 715.944 1572.17 723.962 C 1539.12 724.332 1514.1 716.267 1486.89 695.719 C 1483.64 693.267 1476.62 685.333 1476.31 681.148 z"/>
<path transform="translate(0,0)" fill="rgb(255,254,255)" d="M 1564.17 457.657 L 1565.51 458.86 C 1566.62 464.592 1565.98 472.357 1566.05 478.333 C 1566.41 505.912 1558.85 540.426 1538.24 560.485 C 1535.77 559.544 1534.55 556.201 1532.91 553.404 C 1529.54 546.546 1527.65 542.625 1523.37 536.369 C 1536.92 510.706 1546.44 481.639 1564.17 457.657 z"/>
<path transform="translate(0,0)" fill="rgb(255,254,255)" d="M 1447.12 1033.31 C 1474.23 1043.31 1492.55 1069.49 1507.15 1093.02 L 1500.05 1107.09 C 1498.8 1109.77 1498.08 1110.95 1496.58 1113.41 C 1492.73 1111.54 1480.06 1099.41 1476.68 1095.81 C 1460.29 1078.33 1446.73 1057.9 1447.12 1033.31 z"/>
<path transform="translate(0,0)" fill="rgb(255,254,255)" d="M 1494.12 899.581 C 1510.74 900.893 1546.08 928.914 1559.97 939.396 C 1558.2 948.696 1556.81 954.265 1554.05 963.409 L 1553.2 965.277 L 1551.62 965.418 C 1531.69 955.14 1486.91 927.135 1494.12 899.581 z"/>
<path transform="translate(0,0)" fill="rgb(255,254,255)" d="M 1509.44 1163.41 C 1535.06 1161.15 1553.11 1164.21 1577.86 1169.01 C 1565.49 1177.53 1548.89 1182.16 1534.24 1184.79 C 1504.8 1189.15 1498.62 1190.89 1470.02 1183.2 C 1473.76 1177.52 1477.63 1171.93 1481.63 1166.44 C 1490.77 1165.64 1499.86 1164.2 1509.44 1163.41 z"/>
<path transform="translate(0,0)" fill="rgb(255,254,255)" d="M 1437 1232.77 C 1441.39 1233.79 1445.88 1234.62 1450.34 1235.31 C 1476.73 1239.41 1500.62 1249.22 1525.14 1259.36 C 1519.74 1261.87 1515.84 1263.41 1510.25 1265.45 C 1508.52 1265.94 1506.77 1266.34 1505.01 1266.65 C 1475.95 1271.93 1450 1262.32 1426.6 1245.68 C 1429.93 1241.37 1433.56 1237.01 1437 1232.77 z"/>
<path transform="translate(0,0)" fill="rgb(255,254,255)" d="M 1285.76 200.52 C 1287.74 202.13 1291.35 206.912 1292.64 209.266 C 1310.15 241.295 1310.49 265.146 1303.27 298.507 C 1275.68 284.25 1278.77 226.046 1285.76 200.52 z"/>
<path transform="translate(0,0)" fill="rgb(255,254,255)" d="M 1361.47 257.7 C 1372.75 269 1380.24 337.446 1372.11 350.453 C 1369.15 350.625 1368.77 349.346 1365.66 346.932 L 1351.52 334.967 C 1348.05 303.938 1345.33 285.898 1361.47 257.7 z"/>
<path transform="translate(0,0)" fill="rgb(255,254,255)" d="M 1286.14 1250.55 C 1302.83 1263.58 1308.92 1319.06 1313.34 1340.15 C 1314.4 1345.18 1314.68 1348.1 1310.72 1351.43 C 1304.39 1345.94 1298.96 1339.48 1294.65 1332.29 C 1278.88 1306.07 1279.13 1279.09 1286.14 1250.55 z"/>
<path transform="translate(0,0)" fill="rgb(255,254,255)" d="M 1325.38 1355.24 C 1351.87 1353.69 1374.24 1354.55 1398.44 1366.62 C 1404.55 1369.68 1413.87 1373.66 1416.17 1380.25 C 1414.75 1383 1414.31 1382.32 1410.3 1383.75 C 1401.08 1385.23 1391.69 1385.35 1382.43 1384.09 C 1373.24 1382.88 1320.05 1368.16 1322.19 1356.79 L 1325.38 1355.24 z"/>
<path transform="translate(0,0)" fill="rgb(255,254,255)" d="M 1388.33 1152.27 C 1408.46 1160.46 1427.65 1218.26 1420.74 1235.65 C 1417.51 1236.35 1414.94 1234.1 1413.02 1231.71 C 1398.01 1213.1 1387.1 1175.42 1388.33 1152.27 z"/>
<path transform="translate(0,0)" fill="rgb(8,164,85)" d="M 682.716 262.9 C 675.12 239.556 682.232 209.768 692.956 188.479 C 699.259 175.966 725.978 135.667 738.524 130.092 C 750.467 129.579 757.57 148.907 757.058 158.589 C 755.672 184.773 740.608 212.986 729.93 236.831 C 735.181 234.188 741.931 231.024 746.698 227.897 C 747.353 224.341 748.571 217.316 750.222 214.436 C 773.037 174.647 847.899 188.25 884.879 192.314 C 861.02 265.863 823.2 257.862 757.807 239.538 C 755.336 238.846 748.622 239.355 747.528 242.283 C 784.531 262.534 810.676 281.367 834.419 317.801 C 773.573 322.621 735.218 318.915 695.1 269.019 C 683.176 277.944 668.298 285.555 657.087 293.953 C 685.169 298.488 716.021 308.787 742.132 320.019 C 749.015 323.401 755.434 327.131 760.109 333.367 C 765.541 340.613 761.552 350.291 753.761 353.743 C 703.857 375.854 655.6 359.757 624.145 316.626 L 597.613 336.566 C 621.601 338.808 645.656 344.35 665.003 359.212 C 674.752 366.523 690.084 379.887 688.125 393.411 C 685.431 412.007 653.265 407.597 640.487 404.381 C 613.371 397.558 580.74 386.019 557.603 370.067 C 550.834 376.502 546.194 380.976 538.731 386.652 C 550.662 392.631 559.036 395.235 571.616 400.16 C 583.104 404.658 618.913 407.849 623.292 419.398 C 628.659 433.552 609.046 443.689 597.767 444.971 C 567.743 451.233 524.708 444.706 499.139 428.646 C 491.105 438.837 480.796 448.798 474.578 459.752 C 503.968 461.855 534.768 463.195 563.132 471.458 C 571.22 474.133 579.319 477.467 585.426 483.575 C 590.759 488.592 587.535 496.177 581.603 498.908 C 550.053 513.437 513.584 515.541 479.283 514.264 C 463.87 513.691 454.81 511.15 441.954 502.59 C 435.112 513.788 425.844 527.864 421.026 539.835 C 441.788 535.01 461.367 530.047 482.918 529.2 C 493.1 528.243 516.132 526.657 524.657 533.132 C 546.417 549.663 501.504 571.479 489.59 576.263 C 462.572 587.109 427.407 595.462 400.409 579.735 C 395.717 587.978 391.499 599.093 387.982 608.084 C 396.289 608.137 404.589 608.202 412.845 607.149 C 429.046 605.084 495.782 590.446 504.606 599.889 C 506.434 601.846 506.792 604.511 506.404 607.057 C 504.728 618.079 492.925 628.641 484.034 634.601 C 453.352 655.168 408.409 659.335 372.732 653.783 C 370.511 663.098 367.967 675.28 365.195 684.226 C 387.045 682.592 417.141 677.956 438.86 672.371 C 463.397 666.061 478.061 674.515 459.559 698.182 C 437.552 722.075 401.622 735.375 369.942 736.2 C 366.032 736.277 362.121 736.275 358.211 736.192 C 357.374 745.385 356.355 754.646 356.34 763.869 C 374.25 758.911 434.883 733.605 449.085 742.38 C 452.322 744.379 454.669 747.265 455.286 751.077 C 456.452 758.278 451.854 766.482 447.588 771.934 C 426.058 799.454 388.685 812.64 356.099 820.804 C 356.949 829.466 357.656 838.142 358.221 846.828 C 380.676 834.868 421.045 810.603 447.637 812.927 C 458.412 813.869 455.494 831.88 452.204 837.843 C 435.202 873.974 401.938 895.068 364.649 905.384 C 366.167 912.54 367.49 919.029 369.569 926.039 C 381.729 916.655 433.756 873.453 446.453 893.148 C 467.897 926.411 405.029 967.817 381.467 978.356 C 383.949 987.387 385.288 991.345 389.146 999.831 C 401.326 975.066 425.554 951.493 451.136 940.782 C 454.719 939.282 463.683 938.549 466.518 941.016 C 486.968 958.811 462.795 999.554 451.839 1014.62 C 439.143 1032.07 425.73 1046.12 407.688 1053.9 C 410.917 1061.28 415.891 1071.8 418.297 1079.19 C 428.587 1064.76 437.788 1051.19 451.393 1039.63 C 505.413 993.746 504.335 1041.96 482.274 1080.88 C 484.019 1084.44 482.711 1083.27 486.115 1084.75 C 488.41 1082.8 490.726 1080.89 493.064 1078.99 C 515.352 1061.06 526.998 1072.73 523.087 1098.49 C 517.512 1135.22 509.184 1164.42 478.458 1187.49 C 485.006 1197.77 491.996 1206.7 498.363 1217.51 C 508.038 1170.9 513.258 1154.09 554.813 1130.16 L 555.126 1147.42 C 555.561 1183.33 546.892 1219.96 521.185 1246.25 C 531.234 1258.7 540.179 1269.46 550.743 1281.63 C 551.176 1260.11 557.005 1221.58 570.173 1205.1 C 593.055 1176.48 611.353 1191.96 611.567 1223.14 C 611.834 1262.13 604.032 1283.98 579.165 1312.79 C 587.305 1320.26 600.367 1332.15 606.992 1340.63 C 609.045 1316.48 616.924 1274.44 628.347 1252.86 C 632.83 1244.38 643.635 1232.6 650.294 1225.2 C 666.818 1269.05 670.123 1315.14 637.123 1352.78 C 608.187 1385.78 531.546 1416.24 494.075 1382.52 C 519.567 1354.69 554.951 1339 593.188 1342.81 C 585.218 1335.75 577.64 1328.26 570.49 1320.38 C 543 1345.66 497.209 1356.65 462.569 1339.21 C 453.665 1334.72 450.083 1323.07 457.105 1315.34 C 476.488 1294.02 512.603 1290.72 539.484 1286.86 C 530.765 1278.3 520.066 1264.98 512.473 1255.35 C 489.12 1274.21 454.746 1284.42 424.96 1278.82 C 408.283 1275.68 397.079 1268.23 384.37 1257.56 C 408.065 1241.42 458.865 1225.89 487.342 1222.66 C 481.258 1213.4 474.783 1203.08 468.011 1194.42 C 462.626 1195.93 451.691 1198.73 446.114 1199.51 C 415.726 1202.73 376.46 1196.86 350.45 1180.59 C 343.755 1176.41 340.096 1166.33 347.354 1161.75 C 371.431 1146.55 415.588 1150.79 442.62 1152.07 C 438.75 1145.4 434.786 1138.78 430.731 1132.22 C 425.862 1134.18 422.972 1135.95 417.671 1137.19 C 384.658 1144.91 347.655 1134.85 325.244 1108.83 C 321.684 1104.69 316.961 1097.58 317.919 1092.04 C 320.306 1078.23 340.584 1077.5 351.564 1077.65 C 370.994 1077.46 388.799 1080.64 407.469 1084.16 L 395.637 1056.58 C 371.542 1062.18 336.206 1063.27 314.62 1049.01 C 293.702 1035.18 259.224 996.471 304.166 987.506 C 306.94 986.578 311.365 986.676 314.907 985.811 C 317.102 983.873 317.135 984.079 318.051 981.346 C 298.28 972.765 279.539 957.627 271.869 937.328 C 256.285 896.089 340.987 929.031 353.418 935.681 C 354.968 936.509 356.022 935.978 357.547 935.554 C 358.562 929.393 353.643 913.151 352.685 905.749 C 316.515 906.557 290.834 896.501 268.834 867.081 C 260.348 855.733 243.164 819.329 270.858 820.985 C 295.636 822.84 324.633 838.88 346.36 849.617 L 343.692 820.283 C 298.13 813.396 269.299 776.266 269.744 728.664 C 269.903 711.717 285.082 715.174 293.908 723.058 C 310.424 735.349 327.718 747.202 343.161 760.843 C 344.239 752.529 345.233 743.379 346.675 735.188 C 291.741 725.034 271.279 673.498 276.937 622.586 C 278.014 612.895 285.301 605.034 294.834 608.313 C 317.22 616.011 344.349 653.978 355.822 673.184 C 357.875 665.109 359.421 657.913 361.038 649.731 C 319.268 628.087 305.687 586.127 307.886 540.629 C 308.107 536.071 309.03 519.398 316.647 518.695 C 348.666 522.809 371.909 560.905 381.938 588.419 C 384.457 583.673 387.71 577.868 389.905 573.072 C 358.838 542.014 354.018 511.417 353.046 468.398 C 352.455 442.251 365.074 431.504 381.794 456.682 C 393.993 475.053 407.526 501.732 415.153 522.632 C 421.466 513.288 427.482 503.746 433.192 494.021 C 409.38 459.843 409.049 417.457 413.763 377.613 C 414.473 371.614 420.004 351.562 428.141 355.116 C 455.429 367.034 470.706 414.22 473.453 440.357 C 479.296 433.633 485.106 426.88 490.882 420.098 C 471.879 386.036 475.019 337.672 483.814 301.139 C 493.606 260.461 521.351 301.466 526.351 319.756 C 531.024 336.847 534.817 356.654 534.577 374.193 C 540.52 370.153 544.775 366.23 550.163 361.457 C 537.301 320.812 545.75 273.088 565.299 235.867 C 591.285 258.789 599.975 288.454 595.053 322.699 C 602.647 317.626 610.138 312.401 617.521 307.026 C 604.206 255.481 614.38 214.573 649.696 175.348 C 662.965 211.815 669.812 240.348 656.904 279.143 L 682.716 262.9 z"/>
<path transform="translate(0,0)" fill="rgb(255,254,255)" d="M 462.598 1106.25 L 464.253 1109.03 C 466.595 1108.83 465.95 1108.45 467.591 1109.28 C 461.486 1125.79 458.955 1135.42 456.023 1152.53 C 451.752 1143.27 446.147 1134.18 440.968 1125.35 C 447.602 1119.19 455.672 1112.47 462.598 1106.25 z"/>
<path transform="translate(0,0)" fill="rgb(255,254,255)" d="M 351.636 987.275 C 357.99 986.04 364.311 984.906 370.566 983.237 C 373.089 991.695 375.675 1000.13 378.324 1008.55 C 366.216 1002.66 354.671 997.114 341.965 992.509 C 341.103 990.212 341.357 991.166 338.466 989.325 L 338.536 988.978 L 340.549 989.61 C 340.566 989.599 350.663 987.522 351.636 987.275 z"/>
<path transform="translate(0,0)" fill="rgb(204,255,246)" d="M 318.051 981.346 C 330.336 984.967 338.804 986.999 351.636 987.275 C 350.663 987.522 340.566 989.599 340.549 989.61 L 338.536 988.978 L 338.466 989.325 C 341.357 991.166 341.103 990.212 341.965 992.509 C 325.224 988.021 320.848 988.666 304.166 987.506 C 306.94 986.578 311.365 986.676 314.907 985.811 C 317.102 983.873 317.135 984.079 318.051 981.346 z"/>
<path transform="translate(0,0)" fill="rgb(204,255,246)" d="M 462.598 1106.25 C 469.755 1097.77 475.686 1089.77 482.274 1080.88 C 484.019 1084.44 482.711 1083.27 486.115 1084.75 C 475.29 1094.9 474.766 1096.89 467.591 1109.28 C 465.95 1108.45 466.595 1108.83 464.253 1109.03 L 462.598 1106.25 z"/>
<path transform="translate(0,0)" fill="rgb(255,254,255)" d="M 289.429 619.28 C 309.398 623.416 340.189 672.143 352.394 689.572 C 350.624 699.626 348.931 709.693 347.313 719.773 C 347.108 720.311 346.327 721.289 345.95 721.815 C 344.854 721.886 343.728 721.985 342.647 721.743 C 297.566 711.654 282.786 658.074 289.429 619.28 z"/>
<path transform="translate(0,0)" fill="rgb(255,254,255)" d="M 803.192 200.371 C 817.929 198.557 854.256 200.008 868.976 201.883 C 858.64 224.137 850.597 237.369 823.871 239.606 C 799.129 239.919 781.665 233.587 758.317 226.199 C 766.945 204.561 782.114 203.205 803.192 200.371 z"/>
<path transform="translate(0,0)" fill="rgb(255,254,255)" d="M 320.58 531.662 C 352.902 545.252 363.602 578.286 376.059 606.682 C 372.254 614.88 369.845 623.011 367.091 631.589 C 366.209 633.993 366.151 634.145 364.765 636.29 L 362.691 636.525 C 326.956 616.88 315.056 569.604 320.58 531.662 z"/>
<path transform="translate(0,0)" fill="rgb(255,254,255)" d="M 304.463 1000.41 C 330.224 998.558 358.891 1009.9 379.735 1024.69 C 387.35 1030.09 388.568 1037.32 391.122 1045.8 L 381.247 1046.82 C 367.167 1047.71 349.143 1049.62 335.391 1045.67 C 322.749 1042.04 290.965 1017.23 295.81 1003 C 298.534 1000.62 300.807 1000.81 304.463 1000.41 z"/>
<path transform="translate(0,0)" fill="rgb(255,254,255)" d="M 455.043 951.983 C 458.951 951.808 459.427 952.134 461.65 954.907 C 466.485 977.286 440.107 1011.78 425.468 1026.63 C 418.93 1033.27 410.766 1038.71 402.835 1043.48 C 401.276 1036.45 397.239 1026.67 394.712 1019.46 C 395.147 1017.84 395.636 1016.23 396.177 1014.63 C 405.351 987.724 429.954 964.152 455.043 951.983 z"/>
<path transform="translate(0,0)" fill="rgb(255,254,255)" d="M 642.741 304.128 C 665.114 303.979 732.891 327.182 752.947 339.784 C 747.311 342.935 745.235 344.007 739.157 346.197 C 692.11 359.909 663.451 345.52 633.368 308.777 L 642.741 304.128 z"/>
<path transform="translate(0,0)" fill="rgb(255,254,255)" d="M 728.709 250.758 C 759.044 254.687 791.651 285.543 811.201 307.39 C 803.904 307.171 796.606 306.996 789.306 306.864 C 786.461 306.528 783.619 306.166 780.78 305.78 C 747.682 301.226 726.382 289.298 706.352 262.902 C 713.935 259.233 721.359 254.9 728.709 250.758 z"/>
<path transform="translate(0,0)" fill="rgb(255,254,255)" d="M 429.001 369.667 C 451.27 385.387 458.739 428.119 463.439 452.858 C 458.388 459.179 453.336 466.156 448.453 472.657 C 445.897 476.437 443.387 480.248 440.924 484.09 C 423.4 455.236 417.415 401.306 429.001 369.667 z"/>
<path transform="translate(0,0)" fill="rgb(255,254,255)" d="M 583.36 349.046 C 601.013 347.969 624.01 351.768 640.186 359.052 C 648.591 362.836 681.099 381.41 673.981 392.392 C 670.205 394.789 666.786 394.437 662.203 394.68 C 624.001 391.681 599.932 377.764 566.43 362.427 C 572.43 357.321 576.954 353.578 583.36 349.046 z"/>
<path transform="translate(0,0)" fill="rgb(255,254,255)" d="M 268.192 832.053 C 292.466 835.957 324.611 851.968 346.601 863.545 C 347.734 869.898 351.42 888.229 350.562 893.536 C 336.344 892.897 330.093 893.438 316.22 888.674 C 296.731 881.982 266.084 854.671 268.192 832.053 z"/>
<path transform="translate(0,0)" fill="rgb(255,254,255)" d="M 497.819 296.634 C 519.382 312.664 522.419 360.944 522.832 385.981 C 518.241 391.612 511.857 397.721 506.661 402.965 L 498.513 411 C 485.283 371.943 485.913 336.299 497.819 296.634 z"/>
<path transform="translate(0,0)" fill="rgb(255,254,255)" d="M 464.044 471.983 C 475.619 473.368 487.672 472.459 499.233 473.578 C 524.347 476.009 550.852 477.589 573.609 489.099 C 565.474 492.26 561.197 493.744 552.769 495.811 C 521.44 503.296 478.121 508.355 448.682 493.327 C 453.671 486.118 458.792 479.002 464.044 471.983 z"/>
<path transform="translate(0,0)" fill="rgb(255,254,255)" d="M 440.307 824.15 L 442.012 824.556 L 442.939 826.421 C 436.422 858.512 393.011 884.78 363.526 892.869 C 361.499 881.455 359.98 871.728 358.632 860.22 C 364.847 857.673 375.523 851.525 381.829 848.26 C 401.292 838.185 418.889 829.613 440.307 824.15 z"/>
<path transform="translate(0,0)" fill="rgb(255,254,255)" d="M 739.67 144.653 C 755.663 155.865 728.998 208.662 723.62 221.247 C 716.685 237.479 710.903 244.497 695.992 253.4 C 694.477 252.961 694.418 252.748 693.036 251.903 C 691.992 249.382 692.084 249.552 691.916 246.71 C 689.562 207.008 713.989 172.813 739.67 144.653 z"/>
<path transform="translate(0,0)" fill="rgb(255,254,255)" d="M 499.87 540.443 C 501.451 540.455 503.032 540.477 504.613 540.509 C 509.569 540.605 511.747 540.032 515.038 543.46 L 514.774 545.966 C 513.24 548.238 511.79 550.143 509.482 551.702 C 485.3 568.038 451.543 579.272 422.641 575.231 C 414.863 572.955 411.93 571.795 404.582 568.341 C 407.561 562.578 411.115 555.202 414.689 549.965 C 424.5 551.09 426.069 551.901 435.51 549.177 C 456.34 543.167 478.345 541.805 499.87 540.443 z"/>
<path transform="translate(0,0)" fill="rgb(255,254,255)" d="M 338.3 1090.18 C 368.226 1088.47 384.138 1092.11 413.187 1097.54 C 417.506 1104.78 423.958 1113.55 423.61 1121.63 C 421.286 1124.68 421.11 1123.91 416.639 1125.39 C 410.536 1126.54 404.356 1127.22 398.151 1127.44 C 374.629 1128.03 353.733 1119.74 336.454 1103.48 C 333.229 1100.45 331.109 1097.47 331.132 1093.02 C 333.713 1090.24 333.613 1091.07 338.3 1090.18 z"/>
<path transform="translate(0,0)" fill="rgb(255,254,255)" d="M 591.28 1202.57 C 593.603 1202.54 592.681 1202.42 594.901 1203.59 C 601.409 1215.87 598.741 1233.13 597.726 1246.34 C 595.939 1269.61 585.551 1286.94 570.663 1304.18 C 567.406 1300.05 565.525 1298.09 561.858 1294.45 C 563.331 1264.94 564.994 1220.52 591.28 1202.57 z"/>
<path transform="translate(0,0)" fill="rgb(255,254,255)" d="M 437.568 752.33 C 440.488 752.35 440.668 752.037 443.007 753.612 C 443.255 757.961 437.209 765.618 434.035 768.776 C 414.306 788.402 386.77 800.843 360.204 807.152 C 358.583 807.6 358.609 807.406 356.843 807.321 C 353.86 802.603 355.033 783.418 355.14 776.811 C 380.373 771.905 411.168 756.135 437.568 752.33 z"/>
<path transform="translate(0,0)" fill="rgb(255,254,255)" d="M 479.541 609.34 C 481.89 608.975 490.756 608.62 493.514 608.448 C 467.928 640.771 429.077 643.287 391.005 643.238 C 385.804 643.198 381.244 642.693 376.092 642.191 C 377.773 635.889 381.571 626.316 383.88 619.944 C 410.406 621.857 451.773 613.749 479.541 609.34 z"/>
<path transform="translate(0,0)" fill="rgb(255,254,255)" d="M 280.895 731.162 C 290.106 732.922 331.291 767.054 342.964 775.08 C 343.374 786.422 343.224 797.056 343.063 808.395 C 303.921 800.111 284.076 769.727 280.895 731.162 z"/>
<path transform="translate(0,0)" fill="rgb(255,254,255)" d="M 542.301 1299.5 C 552.136 1298.11 555.46 1305.13 561.961 1311.82 C 541.133 1330.86 511.69 1338.85 484.079 1333.77 C 475.618 1332.09 470.634 1329.17 463.01 1325.27 C 488.082 1304.95 510.497 1302.62 542.301 1299.5 z"/>
<path transform="translate(0,0)" fill="rgb(255,254,255)" d="M 281.835 928.875 C 307.602 931.018 332.9 936.022 353.738 952.019 L 354.679 952.755 C 358.486 952.305 358.725 951.228 362.35 948.599 C 363.472 956.069 365.326 963.93 366.936 971.358 C 333.945 985.239 294.56 960.424 281.835 928.875 z"/>
<path transform="translate(0,0)" fill="rgb(255,254,255)" d="M 509.441 1082.83 L 511.4 1084.45 C 514.347 1105.44 494.962 1169.97 471.436 1176.68 C 463.91 1166.78 468.194 1152.97 470.457 1141.49 C 476.163 1112.55 484.802 1098.78 509.441 1082.83 z"/>
<path transform="translate(0,0)" fill="rgb(255,254,255)" d="M 451.528 682.256 C 453.322 681.808 452.59 681.91 454.572 682.46 C 454.18 690.891 434.091 703.741 427.237 707.716 C 406.292 719.863 386.613 723.821 362.751 723.981 C 361.008 723.891 361.65 723.949 359.973 722.983 C 358.417 716.851 362.165 703.104 363.682 696.429 C 387.134 696.154 428.302 687.277 451.528 682.256 z"/>
<path transform="translate(0,0)" fill="rgb(255,254,255)" d="M 530.273 395.858 C 545.37 405.492 565.937 411.661 583.17 416.175 C 589.456 417.821 607.033 420.112 610.775 424.472 L 610.33 426.234 C 604.759 430.861 597.791 432.233 590.848 433.996 C 566.34 438.403 529.33 431.978 507.558 419.101 C 515.182 411.518 523.124 403.864 530.273 395.858 z"/>
<path transform="translate(0,0)" fill="rgb(255,254,255)" d="M 365.804 456.759 C 377.708 466.013 401.231 520.895 408.002 536.408 L 398.305 554.639 L 394.463 561.102 C 366.794 530.259 364.067 496.992 365.804 456.759 z"/>
<path transform="translate(0,0)" fill="rgb(255,254,255)" d="M 482.651 1034.07 C 495.135 1048.68 449.18 1111.81 434.87 1112.08 L 433.089 1109.14 C 430.135 1103.19 428.047 1098.78 424.329 1093.26 C 439.849 1068.96 455.18 1046.38 482.651 1034.07 z"/>
<path transform="translate(0,0)" fill="rgb(255,254,255)" d="M 434.821 900.015 C 435.942 900.505 437.067 901.29 438.135 901.952 C 439.78 905.405 439.002 908.056 437.851 911.703 C 429.969 936.668 399.929 955.097 378.377 966.524 C 376.407 956.978 374.397 949.64 371.72 940.35 C 388.194 926.483 414.509 905.943 434.821 900.015 z"/>
<path transform="translate(0,0)" fill="rgb(255,254,255)" d="M 387.504 1163.39 C 405.782 1160.81 432.434 1164.52 450.855 1166.46 C 454.7 1172.76 457.558 1177.36 461.977 1183.22 C 450.099 1186.65 444.391 1188.12 432.111 1188.43 C 401.074 1187.25 380.837 1182.84 353 1169.61 C 363.314 1166.88 376.939 1164.53 387.504 1163.39 z"/>
<path transform="translate(0,0)" fill="rgb(255,254,255)" d="M 487.601 1234.33 C 498.062 1232.72 499.719 1238.14 504.986 1245.96 C 480.439 1264.23 456.412 1270.12 426.372 1266.74 C 419.748 1265.19 411.911 1261.92 405.428 1259.43 C 438.521 1247.58 450.488 1240.06 487.601 1234.33 z"/>
<path transform="translate(0,0)" fill="rgb(255,254,255)" d="M 569.087 257.576 L 570.608 258.364 C 584.36 278.2 585.787 307.574 580.643 330.706 C 579.224 337.088 573.297 341.34 568.454 345.307 L 560.086 352.308 C 552.233 318.895 556.648 289.425 569.087 257.576 z"/>
<path transform="translate(0,0)" fill="rgb(255,254,255)" d="M 644.941 200.603 L 646.345 201.55 C 654.479 225.063 652.147 268.631 638.751 290.761 C 637.351 293.074 632.15 296.467 629.723 298.104 L 628.584 297.746 C 627.424 295.426 627.317 295.032 626.852 292.482 C 620.68 258.573 625.284 229.042 644.941 200.603 z"/>
<path transform="translate(0,0)" fill="rgb(255,254,255)" d="M 574.294 1355.38 C 584.389 1353.87 602.492 1354.91 612.612 1356.57 C 597.498 1372.59 571.172 1379.68 550.219 1383.89 C 534.661 1385.75 527.133 1385.08 512.127 1380.91 C 530.502 1364.61 550.455 1358.19 574.294 1355.38 z"/>
<path transform="translate(0,0)" fill="rgb(255,254,255)" d="M 644.729 1250.6 L 646.194 1251.82 C 656.123 1284.89 648.697 1326.49 622.517 1350.29 C 620.097 1350.94 621.34 1350.93 618.743 1349.65 C 615.462 1339.91 631.033 1275.58 636.418 1263.73 C 638.11 1260 642.147 1254.04 644.729 1250.6 z"/>
<path transform="translate(0,0)" fill="rgb(255,254,255)" d="M 541.777 1152.94 C 549.464 1165.99 526.464 1236.12 512.677 1235.55 C 509.137 1231.18 507.963 1229.61 509.181 1223.76 C 514.668 1197.4 519.49 1170.51 541.777 1152.94 z"/>
<path transform="translate(0,0)" fill="rgb(8,164,85)" d="M 618.949 524.714 L 859.805 620.572 L 924.346 646.2 C 934.345 650.171 954.299 657.436 962.828 662.884 C 963.66 683.33 963.013 708.2 963.02 729.017 L 963.042 853.437 L 963.056 1231.47 C 928.375 1218.53 891.516 1202.82 856.991 1188.8 L 618.716 1092.21 L 618.684 752.297 C 618.673 677.397 617.616 599.453 618.949 524.714 z"/>
<path transform="translate(0,0)" fill="rgb(255,254,255)" d="M 813.256 773.741 C 835.111 783.442 834.662 825.107 837.52 846.394 C 843.884 840.816 904.984 786.618 906.842 819.495 C 907.607 833.029 880.224 869.311 869.078 880.665 C 883.828 880.731 941.745 885.885 942.941 903.863 C 944.096 921.214 881.058 926.586 868.809 928.594 C 878.418 938.182 902.261 973.54 904.096 985.495 C 910.655 1028.23 846.842 971.172 837.178 963.259 C 833.752 982.51 835.093 1021.65 816.624 1032.87 C 813.714 1032.54 810.723 1032.26 808.561 1030.14 C 794.519 1016.34 792.687 978.673 791.515 960.33 C 774.605 976.86 752.907 992.712 730.548 1000.61 C 726.94 998.055 720.741 993.834 721.412 988.986 C 724.185 968.95 745.504 943.306 758.34 928.584 C 740.946 925.118 690.756 922.692 685.2 904.404 C 686.852 885.103 746.044 881.184 760.721 880.777 C 751.403 869.785 729.496 840.019 726.384 827.691 C 712.969 774.561 782.351 837.309 791.494 845.092 C 793.229 824.18 794.636 786.596 813.256 773.741 z"/>
<path transform="translate(0,0)" fill="rgb(8,164,85)" d="M 749.721 893.413 C 754.785 892.749 764.727 892.643 770.178 892.43 C 773.438 896.418 776.369 899.069 780.084 902.565 C 765.365 922.455 757.535 915.418 735.237 912.179 C 720.397 911.071 710.81 908.694 697.041 903.439 C 712.383 898.181 733.462 894.61 749.721 893.413 z"/>
<path transform="translate(0,0)" fill="rgb(8,164,85)" d="M 860.961 892.25 C 870.944 892.915 922.351 896.812 927.891 902.94 L 927.379 904.72 C 923.714 907.404 916.506 908.533 911.774 909.647 C 899.707 911.658 870.914 916.068 859.411 916.057 C 855.014 911.745 853.218 909.477 849.484 904.653 C 852.822 899.873 855.934 895.136 860.961 892.25 z"/>
<path transform="translate(0,0)" fill="rgb(8,164,85)" d="M 736.759 819.895 C 753.174 826.224 777.403 848.959 790.8 861.144 C 789.557 867.341 789.246 872.401 788.754 878.688 C 786.525 880.272 778.924 879.884 775.691 879.942 C 764.457 866.477 739.935 836.188 736.759 819.895 z"/>
<path transform="translate(0,0)" fill="rgb(8,164,85)" d="M 892.229 822.096 L 893.146 822.393 L 893.824 823.926 C 887.487 839.977 865.842 866.221 854.255 879.93 C 850.458 879.872 846.074 879.473 842.234 879.223 L 840.515 878.301 C 838.492 872.136 839.249 866.886 840.105 860.613 C 853.26 848.614 876.427 829.014 892.229 822.096 z"/>
<path transform="translate(0,0)" fill="rgb(8,164,85)" d="M 840.229 928.361 L 853.43 928.117 C 854.878 929.818 856.298 931.542 857.69 933.288 C 864.422 941.765 893.324 979.29 892.318 988.22 C 873.423 978.548 854.419 962.646 839.292 947.626 C 838.858 939.848 839.03 935.929 840.229 928.361 z"/>
<path transform="translate(0,0)" fill="rgb(8,164,85)" d="M 775.046 928.175 C 780.208 928.641 783.644 928.528 788.748 928.38 L 790.047 945.843 C 776.087 958.569 760.959 970.919 745.084 981.153 L 733.81 986.666 C 739.827 972.698 763.048 936.991 775.046 928.175 z"/>
<path transform="translate(0,0)" fill="rgb(8,164,85)" d="M 813.215 940.615 C 816.394 941.768 824.12 950.344 826.844 953.178 C 821.179 976.383 825.255 989.14 815.447 1016.74 L 814.405 1018.18 L 812.871 1017.67 C 806.136 999.156 804.007 970.195 803.016 950.675 C 806.252 947.325 809.872 943.9 813.215 940.615 z"/>
<path transform="translate(0,0)" fill="rgb(8,164,85)" d="M 813.163 788.386 C 822.05 795.705 823.915 842.074 827.098 855.873 C 823.535 859.692 819.879 862.772 815.957 866.184 L 814.046 866.682 C 809.651 863.573 806.842 859.851 803.314 855.773 C 804.68 829.152 805.887 814.404 813.163 788.386 z"/>
<path transform="translate(0,0)" fill="rgb(8,164,85)" d="M 812.265 890.295 C 819.748 889.22 826.705 894.356 827.881 901.823 C 829.056 909.29 824.014 916.316 816.564 917.593 C 811.654 918.434 806.672 916.568 803.523 912.708 C 800.374 908.848 799.546 903.592 801.357 898.951 C 803.167 894.31 807.335 891.003 812.265 890.295 z"/>
<path transform="translate(0,0)" fill="rgb(8,164,85)" d="M 1002.96 654.718 C 1018.54 649.725 1056.03 632.585 1072.82 625.57 L 1230.46 559.713 C 1254 549.846 1291.78 532.633 1315.15 524.715 C 1316.4 572.829 1315.71 623.151 1315.69 671.458 L 1315.67 942.265 C 1315.67 991.351 1314.96 1042.55 1315.89 1091.49 L 987.037 1231.64 L 987.102 815.589 L 987.025 714.197 C 987.019 703.779 986.329 670.367 988.303 661.672 C 993.152 659.663 998.218 657.039 1002.96 654.718 z"/>
<path transform="translate(0,0)" fill="rgb(255,254,255)" d="M 1143.19 772.764 C 1147.98 777.854 1167.14 829.275 1173.07 841.088 C 1194.62 840.511 1227.43 837.13 1249.14 834.369 C 1235.37 851.256 1215.93 879.761 1201.51 894.079 L 1245.49 957.738 C 1236.27 955.572 1220.34 953.994 1210.64 952.818 C 1196.95 951.215 1183.3 949.211 1169.72 946.809 C 1163.58 964.09 1147.01 997.065 1138.6 1014.58 C 1135.56 1012.8 1112.3 953.86 1109.24 946.388 C 1083.55 947.098 1058.05 951.74 1034.17 952.15 C 1047.08 933.746 1065.5 909.788 1079.92 892.523 C 1064.86 872.068 1051.06 849.972 1035.66 829.525 C 1057.19 833.955 1088.22 836.758 1111.17 840.202 C 1121.99 820.579 1132.67 793.791 1143.19 772.764 z"/>
<path transform="translate(0,0)" fill="rgb(0,0,0)" d="M 960.877 1581.58 C 956.77 1580.72 952.949 1579.94 948.775 1579.66 C 934.093 1578.69 900.626 1585.8 900.407 1562.99 C 900.374 1559.48 904.7 1554.44 909.851 1556.36 C 912.783 1561.58 905.379 1566.3 915.437 1568.56 C 929.357 1571.69 946.107 1564.2 958.962 1571.85 C 961.286 1573.24 964.725 1579.32 966.54 1581.55 C 977.728 1587.49 978.259 1584.53 988.232 1594.16 C 974.253 1593.52 960.298 1594.26 946.76 1593.55 L 946.493 1594.33 C 987.442 1619.73 951.165 1627.59 949.234 1633.49 C 957.142 1640.38 964.048 1640.31 975.353 1651.48 C 976.767 1656.06 978.356 1660.88 979.6 1665.49 C 959.541 1647.76 939.979 1641.03 914.035 1635.31 C 910.552 1627.73 907.667 1622.72 902.755 1615.85 C 914.339 1619.95 941.815 1627 951.31 1615.96 C 952.152 1609.44 947.976 1607.18 943.178 1603.55 C 938.211 1610.38 934.437 1615.15 925.332 1616.83 C 920.421 1617.74 911.932 1616.29 912.932 1609.4 C 914.115 1601.25 923.966 1596.35 930.511 1592.49 C 919.176 1594.38 908.287 1593.83 896.784 1593.96 C 896.567 1609.59 895.408 1650.12 897.084 1664.4 C 894.88 1661.68 891.433 1657.78 890.627 1654.44 C 887.553 1641.7 882.368 1620.56 867.248 1616.86 C 866.455 1618.4 865.899 1620.04 865.956 1621.78 C 866.629 1642.12 832.513 1631.75 837.667 1618.93 C 847.014 1595.68 871.715 1601.97 884.92 1619.73 C 884.677 1611.14 884.665 1602.54 884.885 1593.95 C 864.316 1593.55 843.742 1593.54 823.173 1593.92 C 823.175 1612.96 822.406 1641.89 823.852 1659.98 L 812.159 1652.87 C 811.907 1638.08 812.761 1607.04 810.58 1594.42 C 796.371 1593.35 755.479 1593.12 741.411 1594.6 C 745.243 1603.39 745.917 1604.81 753.722 1611.01 C 759.338 1606.61 764.313 1602.61 771.031 1600.41 C 779.754 1597.39 803.92 1600.08 798.08 1614.5 C 797.671 1615.51 794.363 1623.92 794.182 1623.62 C 805.6 1642.32 790.55 1649.35 773.796 1646.02 C 769.322 1645.14 763.635 1637.87 759.107 1637.21 C 749.143 1644.02 744.55 1648.51 731.525 1646.26 C 721.42 1644.51 714.095 1638.48 708.436 1630.15 C 703.407 1622.74 697.676 1603.69 697.918 1595.11 L 698.553 1593.31 C 692.266 1590.14 690.515 1588.81 685.113 1584.18 L 789.679 1583.93 C 796.268 1583.94 810.571 1586.28 812.202 1586.11 C 813.476 1580.16 810.587 1580.26 812.692 1575.47 C 817.958 1575.65 819.124 1579.56 821.715 1583.9 L 901.938 1584.04 C 918.725 1584.03 945.494 1585.03 960.877 1581.58 z"/>
<path transform="translate(0,0)" fill="rgb(255,254,255)" d="M 698.553 1593.31 C 705.576 1593.75 717.135 1594.13 723.955 1593.47 C 701.261 1626.26 728.414 1627.42 754.386 1623.92 C 728.184 1650.82 715.445 1626.31 706.963 1600.86 C 704.125 1599.02 700.815 1596.74 697.918 1595.11 L 698.553 1593.31 z"/>
<path transform="translate(0,0)" fill="rgb(255,254,255)" d="M 775.392 1608.09 C 777.778 1607.92 780.58 1607.95 783.007 1607.9 C 786.425 1609.75 785.151 1608.49 787.099 1611.7 C 784.658 1616.17 774.499 1611.08 767.861 1618.89 C 763.379 1633.04 784.039 1628.32 788.027 1630.73 C 783.894 1644.72 757.695 1631.45 761.754 1619.37 C 763.878 1613.04 769.924 1610.86 775.392 1608.09 z"/>
<path transform="translate(0,0)" fill="rgb(255,254,255)" d="M 733.511 1601.44 C 737.247 1603.89 740.517 1607.43 741.267 1611.83 C 739.483 1614.96 739.544 1614.11 735.382 1615.92 C 730.674 1616.16 731.575 1616.78 727.844 1614.96 L 727.109 1612.67 C 728.234 1607.96 730.643 1605.39 733.511 1601.44 z"/>
<path transform="translate(0,0)" fill="rgb(0,0,0)" d="M 1079.35 1597.29 C 1079.18 1592.49 1078.03 1578.82 1079.87 1575.06 C 1085.38 1575.09 1090.74 1585.82 1097.3 1584.95 C 1106.39 1583.08 1096.48 1573.81 1104.71 1566.29 C 1126.19 1546.68 1156.94 1556.73 1176.92 1573.08 C 1179.63 1575.3 1180.65 1577.18 1180.88 1580.29 C 1172.06 1580.7 1152.79 1564.98 1140.49 1565.5 C 1130.35 1565.92 1113.57 1569.83 1113.2 1581.91 C 1116.72 1585.34 1152.01 1584.01 1159.48 1583.95 C 1182.96 1583.71 1206.43 1583.82 1229.9 1584.26 C 1233.51 1587.52 1238.38 1591.26 1242.24 1594.38 C 1227.88 1592.72 1206.96 1594.11 1190.47 1593.23 L 1189.8 1593.97 C 1197.01 1597.51 1196.65 1599.1 1200.59 1606.59 C 1210.51 1602.09 1225.4 1601.55 1227.24 1615.26 C 1227.83 1619.72 1226.57 1624.23 1223.75 1627.74 C 1217.82 1635.23 1208.37 1634.39 1201.73 1628.31 L 1200.83 1629.29 C 1201.94 1638.24 1199.89 1640.44 1194.58 1647 C 1144.42 1669.02 1136.06 1599.55 1125.9 1593.85 C 1121.34 1594.26 1123.25 1593.46 1119.8 1595.95 C 1116.07 1603.48 1118.34 1613.19 1118.42 1621.64 C 1118.54 1633.9 1117.34 1647.62 1119.23 1659.69 C 1114.61 1656.38 1112.06 1654.81 1107.15 1652.03 C 1106.7 1633.3 1107.03 1612.77 1106.99 1593.91 L 1089.95 1593.89 C 1089.83 1615.13 1089.87 1636.37 1090.08 1657.6 L 1078.01 1651.74 C 1078.16 1637.49 1078.72 1620.79 1077.94 1606.76 C 1073.91 1602.25 1069.42 1598.36 1063.27 1597.71 C 1063.61 1601.48 1084.57 1620.05 1058.32 1623.94 C 1055.02 1624.43 1050.65 1620 1048.08 1617.76 C 1041.34 1624.14 1031.41 1628.89 1024.36 1618.35 C 1018.56 1609.67 1032.37 1602.55 1034.33 1596.26 C 1030.64 1593.23 1022.29 1593.8 1017.15 1593.68 C 1013.93 1590.42 1009.92 1587.67 1006.21 1584.91 C 1030.86 1586.3 1023.39 1578.87 1045.42 1593.26 C 1051.12 1586.86 1054.31 1586.16 1062.2 1583.23 C 1070.89 1587.64 1073.27 1590.04 1079.35 1597.29 z"/>
<path transform="translate(0,0)" fill="rgb(255,254,255)" d="M 1200.83 1629.29 C 1190.56 1614.77 1209.45 1607.42 1215.7 1616.14 C 1214.26 1618.85 1207.31 1616.37 1202.62 1620.33 C 1200.67 1624.6 1201.22 1623.1 1201.73 1628.31 L 1200.83 1629.29 z"/>
<path transform="translate(0,0)" fill="rgb(255,254,255)" d="M 1131.38 1593.14 C 1143.1 1594.34 1158.94 1593.76 1170.7 1593.06 C 1163.18 1596.37 1154.93 1600.74 1150.42 1608.09 C 1144.32 1618 1160.43 1626.08 1167.78 1620.59 C 1174.36 1615.68 1167.44 1613.06 1168.05 1608.53 C 1172.67 1603.99 1188.74 1602.65 1190.68 1609.77 L 1188.47 1611.64 C 1186.36 1611.65 1184.25 1611.7 1182.14 1611.77 C 1178.62 1611.92 1176.08 1611.94 1173.62 1614.63 C 1172.01 1618.56 1171.59 1619.01 1171.86 1623.09 C 1176.93 1630.71 1182.47 1625.22 1190.04 1629.2 C 1192.12 1632.78 1192.03 1631.08 1191.3 1634.36 C 1188.05 1636.82 1186.42 1636.94 1182.42 1637.55 C 1147.82 1642.83 1150.25 1607.64 1131.38 1593.14 z"/>
<path transform="translate(0,0)" fill="rgb(238,27,35)" d="M 985.656 574.468 C 988.803 578.645 988.678 578.82 994.575 579.602 C 997.163 580.778 999.893 581.822 1002.13 583.534 C 1003.66 586.053 1003.14 585.662 1005.22 587.565 C 1009.49 589.948 1009.42 589.425 1011.6 594.882 L 1013.65 597.373 C 1015.18 599.989 1016.55 601.863 1017.45 604.717 C 1018.46 608.493 1019.41 611.975 1020.16 615.832 C 1023.42 618.847 1024.17 619.412 1029 619.461 C 1026.49 620.865 1023.68 622.565 1021.06 623.666 C 1016.02 641.008 1014.71 642.191 1002.96 654.718 C 998.218 657.039 993.152 659.663 988.303 661.672 C 960.832 664.519 939.718 654.701 934.617 624.982 L 934.368 623.492 L 931.906 621.909 C 933.799 619.505 935.099 618.47 935.073 615.467 C 934.956 608.63 935.646 607.055 938.476 600.714 C 939.47 597.493 940.46 596.396 942.347 593.667 C 945.978 590.788 946.519 590.396 948.463 586.226 C 950.375 582.247 951.6 582.929 955.587 582.073 C 958.606 581.516 963.231 578.958 966.213 577.523 C 968.586 575.808 970.868 576.141 973.892 576.043 L 977.898 579.012 C 981.111 577.308 980.605 576.593 985.656 574.468 z"/>
<path transform="translate(0,0)" fill="rgb(201,37,34)" d="M 931.906 621.909 C 931.597 621.887 931.288 621.864 930.979 621.842 C 878.146 592.84 825.997 561.914 773.461 532.197 C 765.672 527.791 717.71 501.328 715.288 497.844 C 715.004 494.211 714.606 495.837 716.423 492.771 C 720.054 491.93 727.906 496.217 731.257 498.177 C 783.43 528.686 836.112 558.298 888.514 588.411 C 903.942 597.276 920.075 605.961 935.073 615.467 C 935.099 618.47 933.799 619.505 931.906 621.909 z"/>
<path transform="translate(0,0)" fill="rgb(201,37,34)" d="M 1020.16 615.832 C 1035.05 606.398 1057.15 595.748 1073.29 587.419 L 1160.04 542.75 C 1176.93 534.155 1214.94 512.593 1230.53 507.142 C 1233.41 508.409 1232.21 507.45 1233.96 510.449 C 1232.72 514.527 1231.26 515.473 1227.12 517.553 C 1183.33 539.597 1139.82 562.387 1096.27 584.949 L 1053.94 606.981 C 1049.31 609.416 1033.58 617.809 1029 619.461 C 1024.17 619.412 1023.42 618.847 1020.16 615.832 z"/>
<path transform="translate(0,0)" fill="rgb(201,37,34)" d="M 938.476 600.714 C 934.849 598.395 924.574 589.027 920.92 585.831 L 886.613 555.805 C 874.761 545.426 782.669 466.102 781.672 461.818 C 782.84 459.373 782.734 459.537 785.034 458.085 C 791.877 460.076 828.204 493.605 836.888 501.197 L 942.347 593.667 C 940.46 596.396 939.47 597.493 938.476 600.714 z"/>
<path transform="translate(0,0)" fill="rgb(201,37,34)" d="M 1013.65 597.373 L 1123.1 518.989 C 1138 508.372 1153.22 497.52 1167.94 486.557 C 1170.33 484.777 1174.39 483.738 1177.53 483.801 L 1178.54 484.334 C 1179.71 489.988 1174.18 492.829 1170.17 495.593 C 1118.86 531.008 1068.86 569.533 1017.45 604.717 C 1016.55 601.863 1015.18 599.989 1013.65 597.373 z"/>
<path transform="translate(0,0)" fill="rgb(201,37,34)" d="M 948.463 586.226 C 942.869 575.672 929.898 557.002 923.035 546.488 L 874.504 471.962 C 870.571 465.905 852.954 441.769 853.476 436.318 C 856.115 433.512 854.6 434.326 857.889 433.297 C 862.639 436.193 877.463 461.311 881.607 467.757 L 914.808 518.649 C 924.834 533.98 948.611 568.198 955.587 582.073 C 951.6 582.929 950.375 582.247 948.463 586.226 z"/>
<path transform="translate(0,0)" fill="rgb(201,37,34)" d="M 1005.22 587.565 C 1012.98 581.898 1016.75 572.82 1021.67 567.485 C 1034.53 553.525 1101.74 450.716 1111.05 445.778 L 1112.98 446.407 C 1114.22 449.204 1114.59 451.029 1113.61 454.012 C 1112.52 457.331 1020.29 584.628 1011.6 594.882 C 1009.42 589.425 1009.49 589.948 1005.22 587.565 z"/>
<path transform="translate(0,0)" fill="rgb(201,37,34)" d="M 966.213 577.523 C 959.612 558.871 908.418 433.96 909.577 426.398 C 909.824 424.787 910.533 424.687 911.714 423.764 L 913.967 424.509 C 918.314 429.17 921.317 436.701 923.35 442.76 C 938.216 487.059 959.834 531.742 973.892 576.043 C 970.868 576.141 968.586 575.808 966.213 577.523 z"/>
<path transform="translate(0,0)" fill="rgb(201,37,34)" d="M 977.898 579.012 C 980.104 557.335 976.208 418.095 980.452 410.874 C 983.235 410.057 981.853 409.982 984.695 411.518 C 986.016 414.048 986.88 417.132 986.728 419.985 C 985.421 444.517 986.999 469.564 986.314 494.001 C 985.587 519.922 988.006 548.898 985.656 574.468 C 980.605 576.593 981.111 577.308 977.898 579.012 z"/>
<path transform="translate(0,0)" fill="rgb(201,37,34)" d="M 994.575 579.602 C 1007.01 545.272 1017.17 509.298 1028.93 474.703 C 1031.49 467.185 1039.81 439.506 1043.09 434.593 L 1045.54 434.266 C 1049.3 437.807 1047.84 442.75 1046.44 447.366 C 1042.59 460.057 1037.99 472.738 1033.92 485.342 L 1002.13 583.534 C 999.893 581.822 997.163 580.778 994.575 579.602 z"/>
<path transform="translate(0,0)" fill="rgb(204,255,246)" fill-opacity="0.988235" d="M 1447.76 1078.06 C 1451.65 1083.71 1455.52 1089.41 1459.64 1094.89 L 1458.16 1098.2 C 1453.06 1091.97 1450.53 1089.05 1444.63 1083.66 C 1446.63 1081.4 1447.48 1081 1447.76 1078.06 z"/>
</svg>